<?xml version="1.0" encoding="UTF-8"?>
<svg width="36px" height="22px" viewBox="0 0 36 22" version="1.1" xmlns="http://www.w3.org/2000/svg" xmlns:xlink="http://www.w3.org/1999/xlink">
    <!-- Generator: Sketch 49.3 (51167) - http://www.bohemiancoding.com/sketch -->
    <title>pcdqzi@3x</title>
    <desc>Created with Sketch.</desc>
    <defs>
        <polygon id="path-1" points="0.208070208 0.20953918 19.8051515 0.20953918 19.8051515 15.9999681 0.208070208 15.9999681"></polygon>
    </defs>
    <g id="Page-1" stroke="none" stroke-width="1" fill="none" fill-rule="evenodd">
        <g id="招商政策" transform="translate(-692.000000, -4011.000000)">
            <g id="pcdqzi" transform="translate(692.000000, 4011.000000)">
                <path d="M5.17752836,19.5512808 C5.1499807,19.5114021 5.13201483,19.4848164 5.1134501,19.4585328 C5.09877797,19.4908586 5.07721893,19.5216739 5.07182917,19.5555103 C5.06943372,19.5724285 5.09608309,19.5941805 5.10895863,19.6138177 C5.12961938,19.5953889 5.1499807,19.576356 5.17752836,19.5512808 M5.06075022,19.8062623 C5.05565989,19.7657794 5.0538633,19.7325472 5.04667695,19.7005235 C5.03410085,19.6455393 4.98679073,19.6316422 4.97002258,19.6793757 C4.94157663,19.7597372 4.93708516,19.8497662 4.92900052,19.9361699 C4.92780279,19.9491607 4.96313567,19.9790696 4.97810722,19.9769549 C4.99936684,19.9736316 5.02661507,19.9512754 5.03410085,19.931034 C5.04937183,19.8893427 5.05356387,19.843724 5.06075022,19.8062623 M6.57796778,10.0508027 C6.55551044,10.0556365 6.5061043,10.0586576 6.46298622,10.0770864 C6.36836598,10.1172671 6.27853664,10.165907 6.27344631,10.2909808 C6.27105086,10.3495903 6.29770023,10.3752697 6.35189727,10.3752697 C6.44651751,10.3755718 6.63965059,10.2224017 6.66300622,10.1296537 C6.67618119,10.0782948 6.66210793,10.0462711 6.57796778,10.0508027 M9.9836975,8.69946118 C9.96213846,8.67468809 10.1169444,8.6021815 10.0840069,8.5852633 C9.88278921,8.53390447 9.53664682,8.67831342 9.40369939,8.79885563 C9.33842341,8.85263135 9.31387005,8.93359704 9.3806432,9.01607329 C9.42376128,9.06984901 9.39381817,9.11637407 9.34740634,9.14567882 C9.31057631,9.16894135 8.93389194,9.49189778 8.8632262,9.49794 C8.81262233,9.50186744 8.62398072,9.65111017 8.57397572,9.65654816 C8.45300554,9.66923681 8.42306243,9.77497559 8.35868473,9.84506529 C8.35628929,9.84778429 8.3910233,9.90246634 8.40719258,9.90186212 C8.50031566,9.89793468 8.5679871,9.92300988 8.5853541,10.0251233 C8.59852907,10.1042764 8.61918982,10.1788977 8.55810587,10.2568423 C8.4997168,10.3311616 8.46887539,10.4266286 8.41857096,10.5078964 C8.37784833,10.5740586 7.77419516,11.48311 7.76910483,11.551387 C7.76581109,11.5973079 7.77898606,11.6441351 7.7774889,11.6900559 C7.77569232,11.7471548 7.77988435,11.8105981 7.75682815,11.85954 C7.71580609,11.9474543 7.65502157,12.0260031 7.60441771,12.1096878 C7.5100969,12.2667854 7.22294244,12.7833948 7.2109652,12.8713091 C7.18731014,13.0404911 7.10766145,13.1806705 7.00765146,13.3178288 C6.91901984,13.4389753 6.56060077,13.6848934 6.16834598,14.4643393 C6.11624497,14.5601084 6.09049389,14.6733999 6.06594054,14.7818577 C6.01833099,14.992731 5.89137219,15.2005833 5.84496036,15.4117587 C5.8308871,15.477921 5.79525479,15.5389474 5.77788779,15.6045054 C5.75004069,15.7111505 5.72219359,15.8187019 5.7078209,15.9274618 C5.69464593,16.0244394 5.71231237,16.1220212 5.65362386,16.2153734 C5.61559611,16.2763998 5.61050578,16.3582718 5.66590054,16.4331953 C5.81202293,16.3108404 5.80184228,16.1147705 5.88718015,15.9697573 C5.89795967,15.9513286 5.91532668,15.9537455 5.92640563,15.97157 C5.93748458,16.0328985 5.96593054,16.0966439 5.95724703,16.1546491 C5.92490847,16.3658246 5.87580177,16.574281 5.84226548,16.7854565 C5.81861042,16.9334908 5.80992692,17.0842441 5.7934582,17.2334868 C5.7847747,17.3108271 5.77549234,17.3881675 5.7626168,17.4646015 C5.75543045,17.5090118 5.73207482,17.5516094 5.72908051,17.5957176 C5.7117135,17.8392189 5.58535357,18.0298508 5.44761524,18.2177637 C5.37335632,18.3189708 5.32574677,18.4440447 5.23921117,18.5313547 C5.15417273,18.6171542 5.13770402,18.7105064 5.13470971,18.8159431 C5.13381141,18.8512901 5.13680573,18.892075 5.1538733,18.9207755 C5.28232926,19.1388995 5.26406396,19.3642742 5.20298001,19.5959932 C5.1769295,19.6947834 5.15417273,19.7978032 5.15537046,19.8987082 C5.15716704,20.0606396 5.07841665,20.1787649 4.98918618,20.2980986 C4.96133908,20.3349562 4.93918118,20.3778559 4.92391019,20.4216619 C4.87899552,20.5491527 4.84396208,20.6799667 4.7951548,20.8056448 C4.74155663,20.9431052 4.62507792,21.0491461 4.44032891,20.9763374 C4.31965816,20.928906 3.80673263,20.6092728 3.86152852,20.4621448 C3.90105343,20.356406 3.89476538,20.2684918 3.83637631,20.1703058 C3.81062523,20.127406 3.83368143,20.0558058 3.83278313,19.9974984 C3.83188484,19.9397952 3.84116721,19.8781646 3.82409963,19.8252953 C3.78637131,19.7092847 3.53305257,18.8506858 3.40699206,18.709298 C3.31895931,18.6108099 3.31895931,18.472141 3.3746535,18.357641 C3.48993449,18.1216925 3.50969694,17.8648983 3.56359454,17.6153548 C3.5785661,17.5473799 3.61419841,17.4839366 3.64264436,17.4192849 C3.65342388,17.3948139 3.7516373,17.0573562 3.78277813,16.9105303 C3.79505481,16.8516187 3.79445595,16.7893839 3.81122409,16.732285 C3.84655697,16.6114407 4.56758714,15.352545 4.57986382,15.1761123 C4.58465471,15.10995 4.61938873,15.0449962 4.64454094,14.9812508 C4.70023513,14.8383524 4.75892363,14.6972667 4.81611498,14.5549725 C4.818211,14.5492324 4.81701327,14.5419818 4.82000759,14.5374501 C4.9221136,14.3830715 4.94007947,14.2114725 4.94876297,14.029904 C4.95265558,13.9477298 5.03679573,13.8706916 5.08141097,13.7897259 C5.14369264,13.6764343 5.20327944,13.5619343 5.2625668,13.4471322 C5.2760412,13.4205465 5.29161162,13.3912418 5.29340821,13.3625412 C5.30748147,13.1401877 5.43114653,12.9565043 5.52666506,12.7716125 C5.61799156,12.5954819 5.65961249,12.4057564 5.74015946,12.2281152 C5.86621997,11.9489648 5.95604931,11.652292 6.09378763,11.3797881 C6.14409206,11.2803937 6.20966748,11.1903646 6.23332254,11.0776773 C6.25009068,10.9988264 6.22823221,10.9610626 6.14678694,10.9598541 C6.05516102,10.9592499 5.96952371,10.9689174 5.88448527,11.0281311 C5.72339132,11.1411206 5.54343321,11.2257116 5.38114153,11.3371905 C5.15596932,11.491267 4.94187606,11.6616575 4.71969816,11.8199635 C4.58076211,11.9187538 4.43583744,12.0099912 4.2921105,12.102135 C4.20437717,12.1580255 3.17643009,12.3272075 2.97251748,12.2634622 C2.83627632,12.2205624 2.68266815,12.2347616 2.53744405,12.219354 C2.42845111,12.2078738 0.958244242,11.1498818 0.843262686,11.0115151 C0.694445412,10.8323634 0.555209934,10.6441483 0.418669337,10.4547249 C0.364771733,10.3798014 0.1740341,9.91636344 0.109356975,9.77437137 C-0.0235904488,9.4813239 -0.0113137723,9.17588989 0.0222225148,8.868039 C0.0276122752,8.82000338 0.0413861074,8.77317621 0.0491713169,8.72574482 C0.0895945201,8.4816393 0.123729669,8.23692956 0.171039789,7.99433459 C0.213858441,7.77530427 0.325546254,7.58829769 0.487837929,7.43935707 C0.586051341,7.34872383 0.703128915,7.27893624 0.810924123,7.19857477 C0.848951878,7.17047847 0.890572805,7.14419483 0.921414212,7.10854576 C1.02920942,6.98588878 1.62148421,7.16322781 1.63406031,7.04117505 C1.64124666,6.96746002 1.6762801,6.94268693 1.74574813,6.94601015 C1.86492172,6.95205237 1.98469417,6.95265659 2.10386776,6.95749036 C2.17992327,6.96081358 2.27723839,7.04902993 2.27723839,7.15235182 C2.27723839,7.47440192 2.88867677,7.81729767 3.04168608,7.87560505 C3.45340389,8.03270266 3.86482227,7.97439528 4.28103154,7.89222115 C4.59483537,7.83028843 4.87809723,7.90400347 5.1942965,7.85385308 C5.36197794,7.86654173 5.80094398,7.94992431 5.99198105,7.88436627 C6.06264679,7.8459982 6.14768524,7.78497182 6.24260491,7.75294807 C6.38423583,7.70491246 6.50939805,7.64539663 6.60641373,7.52304176 C6.64533978,7.47409981 6.72229358,7.45174361 6.78607242,7.42908531 C6.88757957,7.3925299 6.99208104,7.36382937 7.09598364,7.33512885 C7.15467214,7.31941909 7.87839719,7.15899826 7.90205225,7.14872649 C7.96613052,7.12153652 8.03260423,7.09918032 8.09308932,7.06564602 C8.16824653,7.02365262 8.24280489,6.97773178 8.30957803,6.92365395 C8.37395572,6.87199301 8.72249356,6.36323844 8.84855407,6.17623186 C8.9671288,5.99979916 9.09528533,5.82940867 9.22284299,5.65962241 C9.25907416,5.61068046 9.2662605,5.57382294 9.22913104,5.52185989 C9.21565664,5.50312902 9.22613673,5.4605314 9.23661682,5.4327372 C9.24619862,5.40554723 9.42645616,5.15842061 9.50580541,5.0659747 C9.63605796,4.9146172 9.69624361,4.73244439 9.74055942,4.54422937 C9.81092574,4.24665024 9.88997556,3.95360277 10.046578,3.68653684 C10.0768206,3.63457378 10.1531755,3.40678224 10.1876101,3.3608614 C10.227135,3.30859624 10.2810326,3.26539439 10.3112752,3.20829545 C10.3999068,3.04062397 10.5681871,2.9632836 10.7478458,3.01675721 C10.8789966,3.05603162 11.0173338,3.08020048 11.1404,3.13760153 C11.2092691,3.16962527 11.8656222,3.55632709 11.9135312,3.75964765 C11.9276044,3.81886136 11.9919821,3.8732413 12.0449814,3.91463048 C12.2204481,4.05058034 12.6040194,4.92791007 12.7028316,4.97926891 C12.748944,5.00313566 12.7806837,5.08138235 12.7929604,5.14059607 C12.8088303,5.21914487 12.8082314,5.30403801 12.7983502,5.38409737 C12.7929604,5.43001821 12.760023,5.47593905 12.7300799,5.51400501 C12.6465386,5.61944167 12.1345113,6.05931498 12.0264167,6.14299967 C11.9509601,6.20160916 11.9737168,6.26565665 12.0683371,6.28831496 C12.1030711,6.29677406 12.1396017,6.30462894 12.1746351,6.30281628 C12.4351402,6.29073185 12.6953459,6.27653264 12.9558509,6.26172921 C12.9822009,6.26021866 13.0094491,6.25598911 13.0349008,6.24813423 C13.1322159,6.21792315 13.2241412,6.21731893 13.3235524,6.25629122 C13.4562004,6.30795216 13.5981307,6.33544424 13.7331742,6.3816672 C13.7966536,6.40341917 14.1984902,6.55507879 14.3008956,6.6871012 C14.3814426,6.79102732 14.6829697,7.21851408 14.7464491,7.2916249 C14.8781988,7.44358662 14.9288027,7.62152988 14.9611413,7.81065123 C14.9737174,7.8852726 14.9847963,7.96019607 14.994977,8.03511955 C15.0126434,8.16079764 14.983898,8.27257863 14.9057465,8.3752963 C14.8207081,8.48707729 14.7320764,8.5991604 14.6676987,8.72332793 C14.6018239,8.85081868 14.4862435,8.91667884 14.3802449,8.98737276 C14.2188515,9.09522631 14.0451814,9.18888066 13.8667205,9.26350202 C13.733773,9.31909041 13.5846563,9.3357065 13.4424265,9.36803236 C13.4220652,9.37286613 13.3996079,9.36742814 13.3798454,9.37286613 C13.1759328,9.42633974 12.9726191,9.48102179 12.7693053,9.53600596 C12.723193,9.5483925 12.6782783,9.57135292 12.6321659,9.57286347 C12.5791666,9.57467614 12.5561104,9.54416295 12.5884489,9.48887667 C12.6052171,9.46078037 12.6147989,9.4281524 12.627375,9.39763921 C12.5860535,9.38404423 12.329441,9.34779093 12.2881195,9.34809304 C12.0635462,9.31486086 12.2698542,8.76501922 12.3177632,8.70792028 C12.3593841,8.658072 12.409988,8.61366171 12.4444226,8.55897966 C12.4842469,8.49463006 12.4563998,8.43753112 12.3806437,8.4284678 C12.2725491,8.41517492 12.175234,8.3780153 12.0734274,8.34145989 C11.9413783,8.29433061 11.1610607,8.32393747 11.109858,8.41426859 C11.0215258,8.5683451 10.6822703,8.58556541 10.657717,8.59493084 C10.5783677,8.62574615 10.5005156,8.66109311 10.420867,8.69100208 C10.2759423,8.74507991 10.0684365,8.78042687 9.9836975,8.69946118" id="Fill-1" fill="#FEFEFE"></path>
                <path d="M14.9984825,14.9112749 C14.998201,15.0432185 14.9962304,15.1757131 14.9990455,15.3073812 C15.0004531,15.3729399 14.9815918,15.4106774 14.9236004,15.4349176 C14.7867858,15.4919371 14.645467,15.542621 14.5196314,15.6227789 C14.3918251,15.7040385 14.2814726,15.8197302 14.1607042,15.9155891 C14.1243892,15.9447874 14.0790658,15.9706803 14.035713,15.9770158 C13.936058,15.991615 13.8333062,16.007316 13.7342142,15.9962978 C13.5897988,15.9808722 13.4470724,15.9434101 13.3037831,15.9136609 C13.1759768,15.8869416 13.0535193,15.8566414 12.9327509,15.9604884 C12.8950283,15.9927169 12.8080412,15.9847286 12.7570877,15.960213 C12.6351932,15.9007144 12.5149877,15.9053972 12.386337,15.9081517 C12.253745,15.9109063 12.1197455,15.871516 11.9879982,15.8423176 C11.9173388,15.8266166 11.8472424,15.7993464 11.7808057,15.7668426 C11.6839657,15.7194641 11.5874072,15.6687801 11.4967605,15.6084551 C11.337425,15.5026799 11.1786525,15.3955273 11.0271993,15.2768056 C10.862515,15.147892 10.7062761,15.0060319 10.5469406,14.8688546 C10.532302,14.8556327 10.5187895,14.8360753 10.5120332,14.8162424 C10.5007727,14.7829122 10.4799409,14.7294736 10.4917644,14.7157008 C10.5123147,14.692287 10.5545414,14.6881552 10.5883228,14.6851252 C10.6243563,14.6818197 10.6615158,14.6933889 10.6978308,14.6906343 C11.0888503,14.7823613 11.0759008,14.6581304 11.0370522,14.6234229 C10.8574478,14.46476 10.4548864,13.9435964 10.2420636,13.8229465 C10.0883583,13.7356268 9.94929164,13.6163542 9.79924599,13.5202199 C9.71732614,13.4681586 9.62555338,13.4353793 9.5382848,13.3921327 C9.40175171,13.3246458 9.33249987,13.1968341 9.29111768,13.0447821 C9.2843614,13.0208174 9.2843614,12.991619 9.27197489,12.972888 C9.16274842,12.8059614 9.10588309,12.61204 9.04423206,12.4216997 C9.02396323,12.3602729 9.00650952,12.2949897 9.00425743,12.2308083 C8.9986272,12.0608517 8.99947173,11.8911706 9.00172382,11.7214894 C9.00313138,11.6179178 9.0110137,11.5143462 9.01664393,11.41105 C9.02340021,11.2780045 9.06618996,11.2242905 9.18245423,11.2256678 C9.25480269,11.2267696 9.30744535,11.205284 9.3477015,11.1380727 C9.36149556,11.1152098 9.38345346,11.0984069 9.40259624,11.0799514 C9.51351179,10.971697 9.58895688,10.9763797 9.701843,11.0758195 C9.76884275,11.1350427 10.0841357,11.505807 10.153669,11.5614492 C10.202089,11.6000131 10.2493829,11.6479425 10.2800677,11.7035847 C10.3169457,11.7699697 10.3631136,11.8033 10.4267352,11.8324983 C10.7166921,11.9655438 12.0685104,12.0594744 12.2793626,12.1652497 C12.5130172,12.2825942 13.0135447,12.5098457 13.0270572,12.5139776 C13.2142624,12.567967 13.4059717,12.6084591 13.5875467,12.6792514 C13.8214828,12.770703 14.0416248,12.9001675 14.2215106,13.0965679 C14.4689593,13.3662398 14.6831896,13.6612536 14.7986093,14.0336707 C14.8231008,14.1121758 14.8715208,14.1824172 14.9143105,14.2518322 C14.9813103,14.3606375 15.0043942,14.4793592 14.999327,14.6090992 C14.9951043,14.7099162 14.9984825,14.8107333 14.9984825,14.9112749" id="Fill-3" fill="#FEFEFE"></path>
                <path d="M6.32250802,15.0284536 C6.32250802,15.1859688 6.32350802,15.3439052 6.32150802,15.5018415 C6.32100802,15.5216362 6.31300802,15.5485907 6.29650802,15.5599621 C6.16100802,15.6517758 6.13000802,15.7781249 6.11800802,15.9145819 C6.11600802,15.9385882 6.08250802,15.9604887 6.05700802,15.9908125 C6.00950802,16.0253479 6.00450802,15.9524866 6.00500802,15.9373247 C6.00750802,15.7718074 5.98100802,15.5987092 6.02950802,15.4424575 C6.07600802,15.2933656 6.19600802,15.1598567 6.28650802,15.0200304 C6.30550802,14.9884431 6.32250802,14.9964452 6.32250802,15.0284536" id="Fill-5" fill="#FEFEFE"></path>
                <g id="Group-9" transform="translate(16.000000, 6.000000)">
                    <mask id="mask-2" fill="white">
                        <use xlink:href="#path-1"></use>
                    </mask>
                    <g id="Clip-8"></g>
                    <path d="M9.93969697,6.08731852 C9.92121212,6.10717037 9.88757576,6.12731852 9.88727273,6.14746667 C9.88636364,6.21472593 9.89575758,6.28228148 9.90515152,6.34954074 C9.90757576,6.36672593 9.92181818,6.38272593 9.93090909,6.39961481 C9.9430303,6.38628148 9.9569697,6.37383704 9.96666667,6.35902222 C10.0245455,6.27013333 9.9630303,6.18657778 9.93969697,6.08731852 M4.41242424,11.6656889 C4.41515152,11.6514667 4.41727273,11.6375407 4.41969697,11.6239111 C4.35121212,11.5996148 4.28212121,11.5572444 4.21363636,11.557837 C4.17424242,11.5581333 4.11333333,11.6173926 4.15151515,11.6982815 C4.23727273,11.6876148 4.33151515,11.7314667 4.41242424,11.6656889 M7.08666667,12.7842074 C7.07787879,12.7056889 7.06606061,12.645837 7.06636364,12.5886519 C7.06666667,12.523763 7.08272727,12.4624296 7.08333333,12.3975407 C7.08575758,12.1922074 7.02181818,12.1213926 6.89181818,12.1785778 C6.86818182,12.1886519 6.83,12.1750222 6.81848485,12.1963556 C6.77939394,12.2686519 6.71757576,12.3492444 6.72181818,12.4313185 C6.7330303,12.6490963 7.04636364,12.9439111 7.08666667,12.7842074 M16.7881818,12.6493926 C16.7466667,12.6194667 16.7136364,12.6994667 16.7266667,12.7353185 C16.7433333,12.7803556 16.8063636,12.8096889 16.849697,12.8455407 C16.8790909,12.869837 16.910303,12.8923556 16.9390909,12.917837 C16.9990909,12.9705778 17.1118182,13.2120593 17.120303,13.0760593 C17.1360606,13.0085037 17.1236364,12.9646519 17.0615152,12.9116148 C16.9590909,12.8239111 16.8884848,12.7667259 16.7881818,12.6493926 M11.2733333,5.80642963 C11.2609091,5.81117037 11.2484848,5.81620741 11.2357576,5.82124444 C11.2357576,5.99428148 11.2266667,6.16761481 11.2418182,6.33976296 C11.2460606,6.38805926 11.2436364,6.48376296 11.3542424,6.49413333 C11.3566667,6.46213333 11.3621212,6.43339259 11.3606061,6.40494815 C11.3512121,6.24257778 11.34,6.0805037 11.329697,5.91813333 C11.3290909,5.90894815 11.3327273,5.89798519 11.3284848,5.89146667 C11.3112121,5.86242963 11.2921212,5.83457778 11.2733333,5.80642963 M16.6515152,6.02717037 C16.6075758,6.03635556 16.5460606,6.04820741 16.4851515,6.06272593 C16.4669697,6.06717037 16.4506061,6.07961481 16.4339394,6.08820741 C16.450303,6.10005926 16.4654545,6.11754074 16.4842424,6.12317037 C16.5545455,6.1450963 16.6481818,6.14302222 16.6921212,6.18835556 C16.7615152,6.25887407 16.8451515,6.28198519 16.9284848,6.30242963 C16.9636364,6.31072593 17.0169697,6.26568889 17.0539394,6.23546667 C17.0645455,6.22657778 17.0563636,6.17502222 17.0406061,6.15961481 C16.9387879,6.06124444 16.8060606,6.04139259 16.6515152,6.02717037 M11.0812121,5.8728 C11.0548485,5.93354074 11.0466667,6.0005037 11.0087879,6.02954074 C10.93,6.08939259 10.9469697,6.16376296 10.9509091,6.23635556 C10.9551515,6.31842963 10.96,6.40287407 10.9836364,6.4810963 C11.0154545,6.58657778 11.06,6.68939259 11.1106061,6.78746667 C11.1239394,6.81265185 11.1809091,6.8165037 11.2178788,6.83013333 C11.2181818,6.79102222 11.2242424,6.75072593 11.2178788,6.7128 C11.2063636,6.64435556 11.1869697,6.5765037 11.1709091,6.50865185 C11.1648485,6.48317037 11.1536364,6.45739259 11.1542424,6.43191111 C11.1560606,6.32702222 11.0824242,6.2328 11.1075758,6.12494815 C11.1130303,6.10242963 11.1206061,6.0805037 11.1266667,6.05768889 C11.1436364,5.99635556 11.1609091,5.93502222 11.0812121,5.8728 M12.5936364,4.92554074 C12.5269697,4.9045037 12.4951515,4.92731852 12.4684848,4.97828148 C12.4348485,5.04198519 12.4030303,5.11368889 12.35,5.15842963 C12.2739394,5.22272593 12.1766667,5.26213333 12.0933333,5.31872593 C12.0387879,5.35605926 11.9860606,5.4005037 11.9457576,5.45146667 C11.9318182,5.46954074 11.9521212,5.54391111 11.9675758,5.54776296 C12.0633333,5.57028148 12.1615152,5.58539259 12.2593939,5.59161481 C12.3115152,5.59487407 12.3651515,5.56672593 12.4178788,5.56761481 C12.6021212,5.57028148 12.6545455,5.49117037 12.6554545,5.32791111 C12.6563636,5.19546667 12.6163636,5.06242963 12.5936364,4.92554074 M8.94272727,3.32998519 C8.94636364,3.33028148 8.94969697,3.33087407 8.9530303,3.33117037 C8.9530303,3.38865185 8.95242424,3.44583704 8.95333333,3.50302222 C8.95545455,3.63902222 9.02969697,3.68524444 9.15333333,3.62154074 C9.29727273,3.54746667 9.4369697,3.46598519 9.57878788,3.38894815 C9.66515152,3.34183704 9.70272727,3.2648 9.71272727,3.17472593 C9.73151515,3.00554074 9.70363636,2.84613333 9.6130303,2.69531852 C9.53545455,2.56554074 9.45848485,2.52435556 9.31,2.56228148 C9.16424242,2.59931852 9.02181818,2.6408 8.99545455,2.8170963 C8.98818182,2.86391111 8.99090909,2.91220741 8.98606061,2.95961481 C8.97272727,3.08317037 8.95727273,3.20642963 8.94272727,3.32998519 M12.3848485,2.77383704 C12.3921212,2.77205926 12.3993939,2.76998519 12.4066667,2.76791111 C12.4066667,2.74983704 12.4063636,2.73176296 12.4066667,2.71368889 C12.4090909,2.51961481 12.3812121,2.45146667 12.1890909,2.39517037 C12.1290909,2.37768889 12.0642424,2.3768 12.0021212,2.36554074 C11.9109091,2.34954074 11.820303,2.32998519 11.7287879,2.31398519 C11.6933333,2.30746667 11.6569697,2.3048 11.6206061,2.30242963 C11.53,2.2965037 11.4387879,2.28198519 11.3490909,2.2890963 C11.2272727,2.29857778 11.1066667,2.32435556 10.9854545,2.3448 C10.9442424,2.35191111 10.9018182,2.35783704 10.8645455,2.37413333 C10.7748485,2.41294815 10.7748485,2.43042963 10.8375758,2.49946667 C10.8875758,2.55428148 10.9418182,2.61028148 10.9748485,2.67487407 C11.0318182,2.78805926 11.0742424,2.90835556 11.1227273,3.02539259 C11.1393939,3.06568889 11.1581818,3.09857778 11.2145455,3.09057778 C11.23,3.08820741 11.2518182,3.11042963 11.2669697,3.12524444 C11.3478788,3.20376296 11.4275758,3.28346667 11.5081818,3.36228148 C11.5115152,3.36554074 11.5209091,3.36346667 11.5254545,3.36642963 C11.5739394,3.40020741 11.6339394,3.42568889 11.6669697,3.46983704 C11.7790909,3.62035556 11.8778788,3.78094815 11.99,3.93146667 C12.059697,4.0248 12.149697,4.10420741 12.2221212,4.19635556 C12.2815152,4.27161481 12.3263636,4.35783704 12.3821212,4.43635556 C12.4093939,4.47517037 12.45,4.53887407 12.4781818,4.53620741 C12.559697,4.52702222 12.4993939,4.46331852 12.5,4.42420741 C12.5012121,4.35191111 12.4924242,4.27902222 12.4884848,4.20672593 C12.4869697,4.17383704 12.4860606,4.14035556 12.4878788,4.10717037 C12.490303,4.06628148 12.5036364,4.02391111 12.4981818,3.98391111 C12.4818182,3.85887407 12.4445455,3.73531852 12.4418182,3.61057778 C12.4381818,3.43576296 12.4587879,3.26035556 12.4684848,3.08524444 C12.4693939,3.06805926 12.4645455,3.04968889 12.459697,3.0328 C12.4351515,2.94628148 12.409697,2.86005926 12.3848485,2.77383704 M4.51909091,8.91931852 C4.55939394,8.91931852 4.5930303,8.92642963 4.62181818,8.91783704 C4.70575758,8.89176296 4.76393939,8.91517037 4.80909091,8.98983704 C4.86090909,9.07517037 4.89848485,9.15754074 5.01121212,9.21117037 C5.1169697,9.26124444 5.16424242,9.24257778 5.21393939,9.17265185 C5.28515152,9.07339259 5.38393939,9.01383704 5.49363636,8.97857778 C5.68878788,8.91576296 5.89121212,8.87428148 6.08606061,8.81057778 C6.22636364,8.76494815 6.36060606,8.70005926 6.49515152,8.63813333 C6.64606061,8.5685037 6.79363636,8.49294815 6.94272727,8.41976296 C7.08424242,8.35072593 7.14909091,8.23694815 7.14757576,8.08346667 C7.14636364,7.92702222 7.1469697,7.77057778 7.14757576,7.61383704 C7.14757576,7.58746667 7.14515152,7.55813333 7.15454545,7.53383704 C7.18545455,7.45176296 7.15454545,7.38776296 7.09727273,7.33117037 C7.08757576,7.32168889 7.0669697,7.31546667 7.05272727,7.31754074 C6.91636364,7.33798519 6.78787879,7.37117037 6.72424242,7.51131852 C6.71818182,7.52435556 6.69575758,7.53472593 6.67939394,7.53798519 C6.63727273,7.54598519 6.19878788,7.82065185 6.15151515,7.8568 C6.10060606,7.89620741 6.04424242,8.01146667 5.99818182,8.03842963 C5.95242424,8.06568889 5.91818182,8.11220741 5.87121212,8.15813333 C5.81060606,8.11842963 5.74121212,8.15605926 5.67818182,8.19813333 C5.58606061,8.25976296 5.49969697,8.3290963 5.41151515,8.39665185 C5.39757576,8.40731852 5.38818182,8.42420741 5.37545455,8.43694815 C5.34969697,8.46272593 5.32272727,8.48761481 5.29575758,8.5125037 C5.27151515,8.53531852 5.24121212,8.55398519 5.22333333,8.58065185 C5.13787879,8.70539259 5.09121212,8.72287407 4.93666667,8.67961481 C4.92878788,8.61176296 4.87424242,8.53383704 4.81030303,8.49857778 C4.80242424,8.49413333 4.7969697,8.48583704 4.78969697,8.4805037 C4.71878788,8.42717037 4.64636364,8.43102222 4.60515152,8.50657778 C4.58,8.5525037 4.59636364,8.61917037 4.57606061,8.66954074 C4.55636364,8.71694815 4.51363636,8.75517037 4.48060606,8.79724444 C4.48636364,8.80168889 4.49151515,8.80642963 4.49727273,8.81087407 C4.52121212,8.79605926 4.54515152,8.78094815 4.59333333,8.75072593 C4.56454545,8.81620741 4.54636364,8.85739259 4.51909091,8.91931852 M9.66484848,6.17798519 C9.67060606,6.17739259 9.67636364,6.1765037 9.68181818,6.17561481 C9.68181818,6.09739259 9.68333333,6.01917037 9.68151515,5.94094815 C9.67909091,5.84317037 9.64636364,5.82539259 9.55181818,5.81117037 C9.42393939,5.79220741 9.35272727,5.90213333 9.24272727,5.9208 C9.20090909,5.92791111 9.15909091,5.95042963 9.12242424,5.97413333 C9.02636364,6.03605926 8.91060606,6.07961481 8.88,6.20702222 C8.87939394,6.2090963 8.87484848,6.20998519 8.87272727,6.21176296 C8.75909091,6.30568889 8.70606061,6.43191111 8.70242424,6.57146667 C8.69848485,6.71428148 8.68212121,6.85265185 8.63939394,6.98983704 C8.60969697,7.08435556 8.59181818,7.18302222 8.57545455,7.2808 C8.56969697,7.31694815 8.58424242,7.35605926 8.58909091,7.39398519 C8.59454545,7.43487407 8.60454545,7.47605926 8.60212121,7.51635556 C8.59515152,7.62539259 8.57454545,7.73442963 8.5769697,7.84287407 C8.57818182,7.88761481 8.61424242,7.95457778 8.65212121,7.96968889 C8.69545455,7.98687407 8.77424242,7.9765037 8.80969697,7.94628148 C8.96848485,7.81176296 9.14,7.74776296 9.35545455,7.76020741 C9.49636364,7.7685037 9.64151515,7.72998519 9.78181818,7.70094815 C9.82333333,7.69235556 9.85181818,7.63428148 9.89424242,7.61561481 C9.97363636,7.58035556 10.0090909,7.51398519 9.99515152,7.44405926 C9.97121212,7.32228148 9.93,7.20287407 9.88606061,7.08554074 C9.84636364,6.97946667 9.77454545,6.88198519 9.75121212,6.77324444 C9.70878788,6.57768889 9.69242424,6.3768 9.66484848,6.17798519 M7.17909091,3.05591111 C7.11090909,3.05887407 7.05424242,3.05294815 7.00272727,3.06628148 C6.92060606,3.08702222 6.84363636,3.1290963 6.76121212,3.14746667 C6.55727273,3.19398519 6.34939394,3.22539259 6.14727273,3.27754074 C6.05484848,3.30124444 5.94909091,3.29383704 5.87060606,3.36702222 C5.84151515,3.39398519 5.80212121,3.41828148 5.76363636,3.42687407 C5.64060606,3.45354074 5.51454545,3.46657778 5.39242424,3.49620741 C5.2569697,3.5288 5.12545455,3.57857778 4.98969697,3.61205926 C4.82757576,3.65205926 4.6930303,3.77591111 4.51272727,3.75902222 C4.49545455,3.75724444 4.47636364,3.76346667 4.46030303,3.77087407 C4.39575758,3.79872593 4.31727273,3.81028148 4.32636364,3.91131852 C4.33393939,4.00287407 4.3730303,4.05413333 4.46636364,4.08020741 C4.50848485,4.09235556 4.55969697,4.10568889 4.58575758,4.13561481 C4.65515152,4.21591111 4.7530303,4.20968889 4.84030303,4.2330963 C4.95272727,4.26302222 5.06636364,4.29265185 5.18151515,4.30776296 C5.29212121,4.32257778 5.4069697,4.33057778 5.51757576,4.31902222 C5.69878788,4.30035556 5.87757576,4.25591111 6.05848485,4.23665185 C6.18636364,4.22302222 6.31757576,4.2410963 6.44636364,4.23131852 C6.62363636,4.21798519 6.8,4.19487407 6.97606061,4.17087407 C7.04575758,4.16139259 7.12333333,4.1528 7.18090909,4.11783704 C7.29606061,4.04702222 7.30393939,3.92139259 7.30272727,3.80287407 C7.30181818,3.72376296 7.28757576,3.64465185 7.2730303,3.56642963 C7.25848485,3.48642963 7.23818182,3.40731852 7.21787879,3.3285037 C7.20757576,3.29028148 7.18606061,3.25383704 7.18060606,3.21531852 C7.17393939,3.16820741 7.17909091,3.11961481 7.17909091,3.05591111 M16.8336364,11.9501333 C16.8409091,11.9421333 16.8642424,11.9415407 16.8651515,11.9350222 C16.8912121,11.7779852 16.9227273,11.9021333 16.9693939,11.9264296 C17.0733333,11.9809481 17.0990909,12.0739852 17.13,12.1690963 C17.1390909,12.1975407 17.1487879,12.2114667 17.1136364,12.237837 C17.0951515,12.251763 17.1033333,12.3356148 17.1281818,12.3608 C17.2536364,12.4876148 17.3890909,12.6046519 17.5193939,12.7270222 C17.5427273,12.7486519 17.5539394,12.7836148 17.5775758,12.8046519 C17.6309091,12.8526519 17.6866667,12.9048 17.7478788,12.8565037 C17.8381818,12.9320593 17.9227273,13.0005037 18.0048485,13.0713185 C18.0439394,13.1053926 18.0769697,13.1465778 18.1172727,13.1788741 C18.1945455,13.2408 18.2736364,13.2114667 18.2993939,13.1154667 C18.3269697,13.0108741 18.3551515,12.9068741 18.3854545,12.7928 C18.4021212,12.8132444 18.4206061,12.8360593 18.4427273,12.8633185 C18.4633333,12.8550222 18.49,12.8440593 18.5157576,12.8336889 C18.5284848,12.6224296 18.580303,12.4162074 18.5872727,12.2079111 C18.589697,12.1448 18.5593939,12.0805037 18.5621212,12.0170963 C18.5666667,11.9234667 18.5927273,11.8313185 18.5993939,11.7373926 C18.610303,11.5922074 18.6012121,11.5231704 18.6057576,11.3773926 C18.6060606,11.3676148 18.5878788,11.3575407 18.5784848,11.347763 C18.5678788,11.3599111 18.5493939,11.3705778 18.5472727,11.3839111 C18.5342424,11.4772444 18.5269697,11.571763 18.5130303,11.6648 C18.4978788,11.7673185 18.4754545,11.8686519 18.46,11.9708741 C18.4506061,12.0339852 18.4487879,12.0982815 18.4433333,12.1622815 C18.4318182,12.1613926 18.3963636,12.0813926 18.3848485,12.0808 C18.3969697,11.9483556 18.4060606,11.8159111 18.4221212,11.6840593 C18.4363636,11.5670222 18.4624242,11.451763 18.4748485,11.3350222 C18.4857576,11.2319111 18.4878788,11.1282074 18.4884848,11.0245037 C18.4887879,10.9726519 18.5139394,10.9092444 18.4363636,10.8790222 C18.4254545,10.8745778 18.4266667,10.8345778 18.4266667,10.8111704 C18.4257576,10.6425778 18.4275758,10.4736889 18.4257576,10.3048 C18.4248485,10.2295407 18.4175758,10.1542815 18.4127273,10.0739852 C18.4248485,10.0769481 18.4478788,10.0825778 18.4724242,10.0885037 C18.4860606,10.0648 18.4945455,10.0416889 18.51,10.0245037 C18.5624242,9.96672593 18.589697,9.91428148 18.5563636,9.82835556 C18.4854545,9.64761481 18.4330303,9.45976296 18.3712121,9.27517037 C18.3069697,9.08346667 18.24,8.89324444 18.1760606,8.70154074 C18.1684848,8.67961481 18.1718182,8.65354074 18.1730303,8.62954074 C18.1769697,8.55813333 18.1775758,8.49294815 18.0863636,8.46420741 C18.0657576,8.45798519 18.0415152,8.39546667 18.0521212,8.37502222 C18.0869697,8.30657778 18.0636364,8.24820741 18.0551515,8.18005926 C18.03,7.96998519 17.3287879,6.87902222 17.2863636,6.8090963 C17.2527273,6.75339259 17.2333333,6.67961481 17.1848485,6.64465185 C17.1106061,6.59131852 17.0166667,6.56494815 16.9312121,6.52642963 C16.8993939,6.51220741 16.8690909,6.49383704 16.8363636,6.48228148 C16.8090909,6.4728 16.7790909,6.46835556 16.750303,6.46568889 C16.7,6.46124444 16.6460606,6.46954074 16.5993939,6.45472593 C16.4733333,6.41502222 16.3506061,6.36791111 16.2127273,6.38776296 C16.1818182,6.39220741 16.1463636,6.36702222 16.1127273,6.35665185 C16.0933333,6.35072593 16.069697,6.33739259 16.0533333,6.34272593 C15.9369697,6.38361481 15.8275758,6.3128 15.7130303,6.34154074 C15.7130303,6.3290963 15.7133333,6.31635556 15.7133333,6.30391111 L16.4066667,6.30391111 C16.4687879,6.20761481 16.3966667,6.14035556 16.3257576,6.06894815 C16.2533333,6.0568 16.1584848,6.04139259 16.0448485,6.02272593 C16.0660606,6.01057778 16.0730303,6.00287407 16.0809091,6.00257778 C16.2630303,5.99072593 16.4457576,5.98154074 16.6278788,5.9685037 C16.7090909,5.96228148 16.789697,5.94302222 16.8712121,5.94154074 C16.929697,5.94065185 16.9884848,5.96435556 17.0475758,5.96791111 C17.1560606,5.97413333 17.2681818,5.95131852 17.3660606,6.02391111 C17.3860606,6.03902222 17.4260606,6.03339259 17.4563636,6.03013333 C17.6248485,6.01205926 17.7584848,6.09946667 17.8724242,6.19398519 C17.9781818,6.28198519 18.0548485,6.40524444 18.1375758,6.51813333 C18.1872727,6.58598519 18.2309091,6.66005926 18.2645455,6.7365037 C18.3136364,6.8490963 18.35,6.96731852 18.3936364,7.08198519 C18.4315152,7.18154074 18.4724242,7.27991111 18.5130303,7.38183704 C18.5018182,7.39487407 18.4851515,7.40642963 18.4784848,7.42213333 C18.46,7.46598519 18.4215152,7.52139259 18.4354545,7.55398519 C18.4521212,7.5930963 18.5160606,7.61205926 18.5569697,7.64198519 C18.6090909,7.68020741 18.6706061,7.71339259 18.7066667,7.76317037 C18.7490909,7.82154074 18.7718182,7.89442963 18.7981818,7.96257778 C18.8451515,8.08257778 18.8845455,8.20583704 18.9336364,8.32494815 C18.9639394,8.39931852 19.0078788,8.46835556 19.0445455,8.54005926 C19.1166667,8.68198519 19.1869697,8.8245037 19.2606061,8.96554074 C19.29,9.02183704 19.3272727,9.07487407 19.3609091,9.1290963 C19.3639394,9.13413333 19.3715152,9.13887407 19.3712121,9.14331852 C19.3587879,9.3288 19.5160606,9.45857778 19.5393939,9.63546667 C19.550303,9.71783704 19.6093939,9.79428148 19.6463636,9.8730963 C19.6515152,9.88376296 19.6593939,9.89442963 19.6606061,9.90539259 C19.6721212,10.0079111 19.6818182,10.1110222 19.6936364,10.213837 C19.7136364,10.3895407 19.739697,10.5646519 19.7533333,10.7412444 C19.7587879,10.8159111 19.7378788,10.8926519 19.7315152,10.9688 C19.7272727,11.0194667 19.7281818,11.0707259 19.7251515,11.1216889 C19.7148485,11.299763 19.7290909,11.483763 19.6866667,11.6541333 C19.6342424,11.8636148 19.6530303,12.0742815 19.6224242,12.2808 C19.6024242,12.4200593 19.5742424,12.5584296 19.5563636,12.6988741 C19.5481818,12.765837 19.559697,12.8221333 19.5615152,12.883763 C19.5663636,13.051763 19.6,13.2250963 19.5112121,13.3850963 C19.5042424,13.3972444 19.5018182,13.4147259 19.5039394,13.4283556 C19.5275758,13.5522074 19.5442424,13.6781333 19.5790909,13.7987259 C19.6106061,13.9086519 19.6751515,14.0031704 19.7439394,14.0988741 C19.8109091,14.1925037 19.830303,14.3193185 19.7648485,14.4393185 C19.7418182,14.4819852 19.7412121,14.5359111 19.7242424,14.5824296 C19.7015152,14.6446519 19.6715152,14.7045037 19.6469697,14.7661333 C19.6184848,14.8369481 19.6066667,14.9193185 19.5618182,14.9773926 C19.5048485,15.0508741 19.429697,15.1172444 19.3490909,15.1652444 C19.159697,15.277837 18.9448485,15.267763 18.7330303,15.2621333 C18.6612121,15.2603556 18.5442424,15.1800593 18.5209091,15.1151704 C18.5190909,15.1092444 18.5206061,15.0991704 18.5178788,15.0979852 C18.3906061,15.0446519 18.3633333,14.9190222 18.3036364,14.8168 C18.29,14.7942815 18.2787879,14.7699852 18.2633333,14.7483556 C18.2072727,14.6716148 18.1530303,14.5930963 18.0927273,14.5196148 C18.0266667,14.4384296 17.9536364,14.3622815 17.8848485,14.2831704 C17.8239394,14.2132444 17.7648485,14.141837 17.7036364,14.0716148 C17.6154545,13.9711704 17.5260606,13.8719111 17.4369697,13.7726519 C17.4351515,13.7705778 17.429697,13.7705778 17.4293939,13.7685037 C17.3763636,13.5593185 17.1360606,13.5240593 17.0327273,13.3599111 C17.0012121,13.309837 16.9430303,13.2754667 16.9106061,13.2256889 C16.8793939,13.1785778 16.8678788,13.1190222 16.8433333,13.0674667 C16.8236364,13.0259852 16.7990909,12.9865778 16.7727273,12.9489481 C16.7418182,12.9053926 16.7078788,12.8636148 16.6733333,12.8227259 C16.6518182,12.7972444 16.6309091,12.7649481 16.6021212,12.7530963 C16.4669697,12.6973926 16.4233333,12.5655407 16.3439394,12.4642074 C16.2669697,12.365837 16.1960606,12.2630222 16.1245455,12.1602074 C16.0436364,12.0431704 15.9693939,11.9208 15.8842424,11.8067259 C15.7987879,11.691763 15.7024242,11.5845037 15.6124242,11.4722074 C15.5948485,11.4502815 15.59,11.4185778 15.5736364,11.3951704 C15.5348485,11.3406519 15.4930303,11.2882074 15.4518182,11.2354667 C15.4415152,11.2227259 15.4257576,11.2141333 15.4163636,11.2008 C15.3339394,11.0843556 15.2478788,10.9702815 15.1715152,10.8496889 C15.080303,10.7056889 14.9951515,10.557837 14.9121212,10.4090963 C14.8190909,10.2416889 14.7133333,10.0822815 14.6015152,9.92642963 C14.540303,9.8408 14.489697,9.74805926 14.4348485,9.65798519 C14.4024242,9.60494815 14.3681818,9.5528 14.339697,9.49828148 C14.2830303,9.39161481 14.2348485,9.2808 14.1742424,9.1770963 C14.1148485,9.07605926 14.0245455,8.98865185 13.9833333,8.88257778 C13.9227273,8.72672593 13.8145455,8.58894815 13.7969697,8.41620741 C13.7933333,8.38242963 13.7539394,8.3530963 13.7369697,8.31902222 C13.6415152,8.12702222 13.5457576,7.93472593 13.4542424,7.74065185 C13.3590909,7.54035556 13.259697,7.34154074 13.1787879,7.13591111 C13.1093939,6.95931852 13.0727273,6.77057778 13.0048485,6.5930963 C12.9521212,6.45502222 12.8881818,6.32020741 12.7148485,6.2730963 C12.6163636,6.24613333 12.530303,6.17798519 12.4342424,6.13828148 C12.2390909,6.05739259 12.0406061,5.98331852 11.8433333,5.90657778 C11.829697,5.90094815 11.8093939,5.89828148 11.8039394,5.88820741 C11.7575758,5.80376296 11.6612121,5.80168889 11.589697,5.79220741 C11.520303,5.78302222 11.4339394,5.82183704 11.3706061,5.86302222 C11.33,5.88939259 11.380303,6.05265185 11.4275758,6.09442963 C11.4393939,6.10539259 11.4530303,6.1205037 11.4548485,6.13502222 C11.4672727,6.2408 11.4687879,6.34835556 11.49,6.45205926 C11.5133333,6.56613333 11.5515152,6.67754074 11.5890909,6.78835556 C11.5978788,6.81413333 11.6251515,6.84376296 11.6506061,6.85265185 C11.799697,6.90361481 11.8584848,7.05739259 11.99,7.12939259 C12.0254545,7.14865185 12.0381818,7.20435556 12.0709091,7.23339259 C12.1572727,7.31072593 12.2518182,7.37946667 12.3378788,7.45739259 C12.4036364,7.51665185 12.49,7.57502222 12.5163636,7.65028148 C12.5569697,7.76791111 12.6512121,7.81057778 12.740303,7.86065185 C12.8809091,7.93946667 12.9312121,8.18628148 12.8221212,8.3045037 C12.7615152,8.37057778 12.7042424,8.43961481 12.6454545,8.50717037 C12.6372727,8.51635556 12.6290909,8.52820741 12.6187879,8.53176296 C12.4966667,8.56968889 12.4451515,8.67754074 12.3715152,8.76435556 C12.3645455,8.77294815 12.3527273,8.78628148 12.3454545,8.7850963 C12.2230303,8.76346667 12.1115152,8.8485037 11.9778788,8.80257778 C11.9057576,8.77768889 11.8039394,8.8490963 11.7136364,8.85887407 C11.6212121,8.86835556 11.5236364,8.86628148 11.4330303,8.84791111 C11.3618182,8.83368889 11.2981818,8.79694815 11.2248485,8.83931852 C11.2118182,8.84672593 11.1851515,8.83842963 11.1681818,8.83102222 C11.040303,8.77294815 10.9106061,8.73265185 10.7654545,8.75457778 C10.720303,8.7610963 10.6715152,8.7368 10.6242424,8.7365037 C10.5845455,8.73591111 10.5445455,8.75368889 10.5045455,8.75605926 C10.3036364,8.76791111 10.1018182,8.76939259 9.90212121,8.79042963 C9.73484848,8.80820741 9.57,8.8488 9.40363636,8.87754074 C9.37090909,8.88346667 9.33545455,8.87517037 9.30242424,8.88168889 C9.2030303,8.90094815 9.10363636,8.9210963 9.00575758,8.94687407 C8.95090909,8.9610963 8.90121212,8.99368889 8.84636364,9.00583704 C8.71606061,9.03457778 8.69060606,9.13739259 8.67060606,9.23961481 C8.65848485,9.29976296 8.67090909,9.36435556 8.66757576,9.42687407 C8.65909091,9.56524444 8.63969697,9.70391111 8.64,9.84257778 C8.64030303,10.0239111 8.65636364,10.2052444 8.66363636,10.3868741 C8.66636364,10.4559111 8.67909091,10.5290963 8.66090909,10.5933926 C8.6269697,10.7151704 8.62848485,10.8292444 8.66272727,10.9510222 C8.68878788,11.0440593 8.69090909,11.1433185 8.69878788,11.2408 C8.70363636,11.3000593 8.73181818,11.3279111 8.79151515,11.3279111 C8.95151515,11.3279111 9.11212121,11.3296889 9.27212121,11.3270222 C9.34242424,11.325837 9.38454545,11.3068741 9.34393939,11.2194667 C9.32878788,11.1874667 9.35757576,11.1305778 9.37757576,11.0896889 C9.3930303,11.0570963 9.42575758,11.0325037 9.46212121,10.9919111 C9.53909091,10.9874667 9.63606061,10.9821333 9.7330303,10.9768 C9.73606061,10.9655407 9.73939394,10.9545778 9.74272727,10.9433185 C9.70606061,10.8908741 9.66969697,10.8384296 9.62333333,10.7714667 C9.65606061,10.7602074 9.68666667,10.7421333 9.71787879,10.7409481 C9.81636364,10.7368 9.91515152,10.7433185 10.0133333,10.7376889 C10.0675758,10.7350222 10.1209091,10.7166519 10.1924242,10.7015407 C10.2409091,10.7530963 10.3175758,10.7628741 10.4006061,10.709837 C10.4863636,10.6547259 10.5706061,10.597837 10.6575758,10.5456889 C10.6815152,10.5308741 10.7148485,10.5225778 10.7427273,10.5240593 C10.9030303,10.531763 11.0654545,10.5302815 11.2224242,10.5572444 C11.4448485,10.5951704 11.6678788,10.6013926 11.8909091,10.6212444 C12.1130303,10.6410963 12.339697,10.6505778 12.5551515,10.7323556 C12.6878788,10.7827259 12.8363636,10.7919111 12.9718182,10.8363556 C13.0521212,10.8630222 13.1269697,10.9151704 13.1927273,10.9690963 C13.2754545,11.035763 13.3509091,11.1125037 13.4212121,11.1916148 C13.4939394,11.2736889 13.5457576,11.3765037 13.6272727,11.4479111 C13.8336364,11.6295407 13.9966667,11.8422815 14.1333333,12.0751704 C14.1784848,12.1522074 14.1960606,12.245837 14.2469697,12.3184296 C14.33,12.4375407 14.3221212,12.5542815 14.2809091,12.6810963 C14.2693939,12.7169481 14.2675758,12.7610963 14.2778788,12.7972444 C14.3233333,12.9572444 14.2587879,13.0959111 14.1639394,13.2064296 C14.1045455,13.2760593 13.9884848,13.3006519 13.8960606,13.3406519 C13.8554545,13.357837 13.8048485,13.3539852 13.7672727,13.3750222 C13.6848485,13.4206519 13.5987879,13.4295407 13.5066667,13.4381333 C13.3915152,13.4488 13.280303,13.4935407 13.1657576,13.5116148 C13.0136364,13.5353185 12.8633333,13.5892444 12.7036364,13.5344296 C12.6484848,13.5151704 12.5775758,13.5445037 12.52,13.5290963 C12.4172727,13.5021333 12.3160606,13.4650963 12.220303,13.419763 C12.0781818,13.3522074 11.9481818,13.2493926 11.799697,13.2070222 C11.6618182,13.1676148 11.5563636,13.0810963 11.4281818,13.0322074 C11.3993939,13.0212444 11.3766667,12.9951704 11.3506061,12.9770963 C11.3030303,12.9430222 11.2527273,12.9122074 11.2075758,12.8751704 C11.1515152,12.8295407 11.0993939,12.779763 11.0466667,12.7305778 C10.999697,12.6864296 10.9545455,12.6405037 10.9084848,12.595763 C10.8915152,12.5791704 10.8745455,12.5628741 10.8569697,12.5465778 C10.7948485,12.4882074 10.7387879,12.4212444 10.6687879,12.373837 C10.5954545,12.323763 10.5027273,12.3006519 10.4290909,12.2508741 C10.3221212,12.1788741 10.1963636,12.1806519 10.0818182,12.171763 C9.97939394,12.163763 9.89636364,12.1299852 9.81242424,12.0885037 C9.71151515,12.0384296 9.62090909,11.9610963 9.51545455,11.9302815 C9.38151515,11.8905778 9.31848485,11.7729481 9.20939394,11.7083556 C9.17575758,11.6885037 9.17939394,11.6096889 9.16272727,11.5450963 C9.11242424,11.5545778 9.06090909,11.5646519 9.00909091,11.5750222 C9.07878788,11.5252444 8.82454545,11.523763 8.91515152,11.5522074 C8.8869697,11.5945778 8.85666667,11.6399111 8.82636364,11.685837 C8.81757576,11.6994667 8.8130303,11.7222815 8.80090909,11.7270222 C8.71151515,11.7625778 8.6930303,11.8301333 8.69848485,11.9160593 C8.70393939,11.9969481 8.69363636,12.0793185 8.70090909,12.1599111 C8.71787879,12.3480593 8.74333333,12.5353185 8.76060606,12.7231704 C8.76787879,12.7981333 8.75909091,12.8739852 8.76393939,12.9492444 C8.77181818,13.0674667 8.7769697,13.1862815 8.79757576,13.3027259 C8.81787879,13.4168 8.85666667,13.5279111 8.88575758,13.6410963 C8.89090909,13.6612444 8.89242424,13.6834667 8.88909091,13.7039111 C8.86939394,13.835763 8.92575758,13.9525037 8.95818182,14.0751704 C8.97969697,14.1572444 8.96484848,14.2479111 8.96909091,14.3344296 C8.97060606,14.3670222 8.98242424,14.3996148 8.98363636,14.4319111 C8.98636364,14.5012444 8.97818182,14.5714667 8.98636364,14.6396148 C9.00090909,14.7616889 9.04242424,14.8834667 9.03939394,15.0043556 C9.03666667,15.1216889 9.1169697,15.1987259 9.14242424,15.2994667 C9.18484848,15.4648 9.14545455,15.6085037 9.01,15.7160593 C8.9,15.8031704 8.78242424,15.8808 8.66575758,15.9587259 C8.64545455,15.9723556 8.61363636,15.9705778 8.5869697,15.9741333 C8.51272727,15.9839111 8.43878788,15.9960593 8.36424242,15.9999111 C8.34181818,16.0010963 8.31060606,15.9836148 8.29636364,15.9652444 C8.23787879,15.8902815 8.15666667,15.9027259 8.08515152,15.9199111 C7.9430303,15.9533926 7.8069697,15.9453926 7.66333333,15.9208 C7.54818182,15.9006519 7.47121212,15.8250963 7.37484848,15.787763 C7.21939394,15.7276148 7.1669697,15.5910222 7.0769697,15.4825778 C7.04727273,15.4470222 7.04818182,15.3889481 7.0269697,15.3448 C6.95818182,15.2028741 6.88272727,15.0639111 6.81606061,14.9208 C6.79060606,14.8659852 6.78878788,14.8010963 6.76545455,14.7450963 C6.74212121,14.6876148 6.7069697,14.6351704 6.67515152,14.5815407 C6.66848485,14.5702815 6.64969697,14.5655407 6.6430303,14.5542815 C6.59787879,14.4769481 6.57151515,14.3785778 6.50636364,14.3252444 C6.39636364,14.2348741 6.33939394,14.1128 6.26,14.0049481 C6.12727273,13.8239111 6.00666667,13.6348741 5.87666667,13.4520593 C5.82484848,13.3794667 5.76515152,13.3113185 5.70212121,13.2473185 C5.64030303,13.1842074 5.54848485,13.1933926 5.46575758,13.2330963 C5.31151515,13.3074667 5.15121212,13.3723556 4.99121212,13.4345778 C4.83575758,13.4950222 4.67818182,13.5501333 4.51939394,13.6019852 C4.42393939,13.6336889 4.32606061,13.6621333 4.22636364,13.6793185 C4.11606061,13.6985778 4.00151515,13.7181333 3.89090909,13.709837 C3.67545455,13.6935407 3.44969697,13.709837 3.25151515,13.6147259 C3.09424242,13.5394667 2.91121212,13.4908741 2.82121212,13.3139852 C2.79545455,13.2627259 2.72727273,13.2333926 2.69545455,13.1836148 C2.63060606,13.0825778 2.58090909,12.9723556 2.51818182,12.8701333 C2.4230303,12.7145778 2.42787879,12.5427259 2.42878788,12.3735407 C2.42969697,12.2165037 2.44363636,12.0585778 2.46090909,11.9021333 C2.46727273,11.8467259 2.49757576,11.7933926 2.5230303,11.741837 C2.57484848,11.6369481 2.62909091,11.5335407 2.68575758,11.4313185 C2.71818182,11.3732444 2.75333333,11.3154667 2.79454545,11.2630222 C2.87909091,11.1551704 2.97212121,11.0535407 3.05484848,10.9445037 C3.11424242,10.8665778 3.18242424,10.8073185 3.28060606,10.7865778 C3.35969697,10.7702815 3.43818182,10.749837 3.51818182,10.7403556 C3.67090909,10.7222815 3.82454545,10.7068741 3.97878788,10.6970963 C4.03666667,10.6932444 4.09545455,10.7080593 4.16363636,10.7154667 C4.14606061,10.741837 4.13151515,10.7628741 4.11333333,10.7892444 C4.12393939,10.8010963 4.13515152,10.8144296 4.14727273,10.8268741 C4.25363636,10.9356148 4.25727273,10.9616889 4.16272727,11.0704296 C4.10272727,11.1394667 4.17363636,11.1667259 4.2069697,11.1886519 C4.25393939,11.219763 4.29757576,11.2399111 4.30212121,11.3059852 C4.30393939,11.331763 4.33969697,11.3676148 4.36727273,11.3768 C4.46030303,11.4070222 4.55666667,11.4280593 4.65242424,11.451763 C4.67878788,11.4579852 4.70787879,11.4541333 4.73272727,11.4633185 C4.82484848,11.4968 4.94454545,11.4680593 5.00212121,11.3954667 C5.03787879,11.3501333 5.03030303,11.2194667 4.98727273,11.157837 C4.98272727,11.1513185 4.97333333,11.1468741 4.96575758,11.1430222 C4.8630303,11.0947259 4.76,11.0470222 4.65090909,10.9960593 C4.64484848,10.9628741 4.63757576,10.9199111 4.62818182,10.8648 C4.65212121,10.867763 4.67909091,10.8659852 4.70151515,10.8745778 C4.89878788,10.9504296 5.09484848,11.0307259 5.29363636,11.1033185 C5.32060606,11.1130963 5.36090909,11.0879111 5.40666667,11.075763 C5.48121212,11.1984296 5.64212121,11.1868741 5.77454545,11.235763 C5.86333333,11.2686519 5.94878788,11.3092444 6.03787879,11.3406519 C6.14727273,11.3794667 6.25090909,11.4452444 6.37606061,11.4206519 C6.38242424,11.4191704 6.38939394,11.4212444 6.39454545,11.4182815 C6.50181818,11.355763 6.60939394,11.2935407 6.71575758,11.2295407 C6.72424242,11.2248 6.7330303,11.2040593 6.73030303,11.2010963 C6.71909091,11.1895407 6.70333333,11.1747259 6.68939394,11.1750222 C6.60333333,11.1768 6.51757576,11.1821333 6.42121212,11.1714667 C6.49787879,11.1412444 6.57363636,11.1080593 6.65121212,11.0810963 C6.72454545,11.0559111 6.80727273,11.0493926 6.87212121,11.0120593 C6.95393939,10.9649481 7.03484848,10.9045037 7.09181818,10.8316148 C7.13121212,10.7806519 7.14,10.6994667 7.14484848,10.6310222 C7.16060606,10.413837 7.17575758,10.195763 7.17666667,9.97828148 C7.17757576,9.80317037 7.15909091,9.62746667 7.14606061,9.45235556 C7.14090909,9.38183704 7.05969697,9.35191111 6.97060606,9.38213333 C6.67484848,9.48257778 6.37969697,9.58568889 6.08242424,9.6810963 C5.98060606,9.71368889 5.87121212,9.72317037 5.76666667,9.74924444 C5.70454545,9.76465185 5.64606061,9.79339259 5.58484848,9.81176296 C5.56272727,9.81857778 5.53666667,9.81028148 5.5130303,9.81294815 C5.47515152,9.81739259 5.42757576,9.81294815 5.40151515,9.83339259 C5.23666667,9.9610963 5.05424242,10.0396148 4.84363636,10.0609481 C4.78272727,10.0671704 4.72454545,10.1000593 4.66636364,10.1231704 C4.53848485,10.173837 4.41060606,10.2242074 4.28454545,10.2787259 C4.21363636,10.3089481 4.14727273,10.3492444 4.07636364,10.3803556 C3.92636364,10.4467259 3.77727273,10.5154667 3.6230303,10.571763 C3.52575758,10.6073185 3.42030303,10.6402074 3.31818182,10.6405037 C3.22151515,10.6410963 3.11515152,10.6372444 3.02727273,10.571763 C3.00636364,10.555763 2.96969697,10.5602074 2.94060606,10.5533926 C2.81333333,10.5234667 2.6730303,10.541837 2.55969697,10.4612444 C2.49878788,10.4176889 2.44515152,10.3649481 2.38818182,10.315763 C2.35757576,10.2896889 2.32181818,10.2665778 2.29909091,10.2348741 C2.17363636,10.059763 2.1269697,9.85087407 2.05242424,9.65472593 C2.02515152,9.58331852 2.04181818,9.49324444 2.04939394,9.41265185 C2.05636364,9.33798519 2.12454545,9.33354074 2.1769697,9.34746667 C2.33060606,9.38865185 2.43757576,9.29383704 2.55545455,9.2325037 C2.63727273,9.19013333 2.72030303,9.14539259 2.7930303,9.08968889 C2.90090909,9.00672593 3.00060606,8.9130963 3.10363636,8.82420741 C3.23818182,8.70865185 3.3730303,8.59339259 3.50727273,8.47754074 C3.64030303,8.36317037 3.77212121,8.24820741 3.90454545,8.13324444 C3.99333333,8.0565037 4.08060606,7.97768889 4.17212121,7.9045037 C4.19515152,7.88583704 4.23424242,7.88761481 4.2630303,7.87428148 C4.30606061,7.85413333 4.35272727,7.83517037 4.38757576,7.80435556 C4.49666667,7.70687407 4.60090909,7.60376296 4.70636364,7.50272593 C4.74575758,7.4650963 4.78333333,7.42539259 4.82424242,7.38983704 C4.91727273,7.30865185 5.00909091,7.22628148 5.10636364,7.15042963 C5.22363636,7.05828148 5.34545455,6.97146667 5.46727273,6.88494815 C5.5230303,6.84554074 5.58787879,6.81768889 5.64030303,6.77442963 C5.75,6.68465185 5.85515152,6.58894815 5.96030303,6.49413333 C6.12393939,6.34598519 6.28515152,6.19487407 6.45,6.04791111 C6.51181818,5.9930963 6.5569697,5.92435556 6.63909091,5.88346667 C6.70606061,5.84968889 6.74121212,5.76020741 6.80090909,5.70657778 C6.9030303,5.61354074 7.01606061,5.53235556 7.11787879,5.43902222 C7.16030303,5.4008 7.19818182,5.34924444 7.21666667,5.29620741 C7.2530303,5.19042963 7.31151515,5.08346667 7.25151515,4.96465185 C7.2430303,4.94805926 7.27030303,4.91724444 7.27060606,4.89294815 C7.27272727,4.73768889 7.27151515,4.58242963 7.27151515,4.44642963 C7.18363636,4.42717037 7.11181818,4.40228148 7.03878788,4.39813333 C6.90121212,4.39013333 6.76272727,4.3928 6.62484848,4.39546667 C6.58060606,4.39635556 6.5369697,4.41857778 6.49333333,4.41887407 C6.21909091,4.42124444 5.94454545,4.42628148 5.67060606,4.41739259 C5.54272727,4.41354074 5.41636364,4.36761481 5.28848485,4.36405926 C5.11242424,4.35872593 4.93545455,4.37354074 4.75909091,4.38361481 C4.70606061,4.38687407 4.6530303,4.40020741 4.60151515,4.41383704 C4.39121212,4.46924444 4.27666667,4.62746667 4.16757576,4.79517037 C4.09030303,4.91398519 4.00424242,5.02746667 3.92090909,5.14242963 C3.84909091,5.2405037 3.80333333,5.34983704 3.75848485,5.46154074 C3.70666667,5.59013333 3.7169697,5.61561481 3.85787879,5.62924444 C3.90212121,5.63368889 3.94666667,5.66124444 3.98848485,5.6568 C4.08333333,5.64731852 4.17636364,5.62391111 4.27060606,5.60731852 C4.3530303,5.5925037 4.43636364,5.57976296 4.51909091,5.56583704 C4.56636364,5.55783704 4.61363636,5.55102222 4.65969697,5.53976296 C4.70121212,5.52968889 4.81484848,5.58687407 4.8330303,5.62835556 C4.88909091,5.75517037 4.84121212,5.86242963 4.7630303,5.95991111 C4.72151515,6.01176296 4.66545455,6.05235556 4.62,6.10183704 C4.58818182,6.1365037 4.55333333,6.17383704 4.5369697,6.2165037 C4.47575758,6.37591111 4.33848485,6.46302222 4.21424242,6.56642963 C4.08121212,6.67783704 3.95969697,6.80287407 3.83818182,6.92702222 C3.71787879,7.05087407 3.61363636,7.19428148 3.44090909,7.25354074 C3.22212121,7.32820741 3.01,7.41976296 2.76969697,7.42954074 C2.62575758,7.43546667 2.51848485,7.38865185 2.41575758,7.30539259 C2.39939394,7.29235556 2.3830303,7.27605926 2.36363636,7.27072593 C2.2069697,7.22983704 2.1230303,7.10272593 2.03666667,6.98983704 C1.95878788,6.88820741 1.92848485,6.75754074 1.92121212,6.62835556 C1.91484848,6.51724444 1.92333333,6.40524444 1.91787879,6.29413333 C1.91575758,6.24998519 1.89272727,6.20642963 1.88242424,6.16228148 C1.87393939,6.12583704 1.87030303,6.08791111 1.86454545,6.05087407 C1.85151515,5.97235556 1.83878788,5.89413333 1.82454545,5.81561481 C1.81545455,5.76672593 1.79363636,5.71783704 1.79575758,5.66954074 C1.79878788,5.59042963 1.81575758,5.51220741 1.82787879,5.43339259 C1.8369697,5.37561481 1.84575758,5.31754074 1.8569697,5.26005926 C1.86484848,5.22005926 1.87666667,5.18065185 1.88575758,5.14094815 C1.90787879,5.04405926 1.93151515,4.94687407 1.95090909,4.84939259 C1.9569697,4.81768889 1.95242424,4.78361481 1.95151515,4.75013333 C1.95030303,4.70628148 1.95818182,4.62835556 1.94393939,4.6245037 C1.88454545,4.60672593 1.81818182,4.60642963 1.75484848,4.60939259 C1.69242424,4.61235556 1.63,4.63694815 1.56848485,4.63517037 C1.42272727,4.62983704 1.29212121,4.69265185 1.15424242,4.7130963 C0.966060606,4.74094815 0.776666667,4.75754074 0.587272727,4.65917037 C0.401515152,4.56257778 0.328787879,4.39694815 0.233333333,4.2405037 C0.214545455,4.20968889 0.213333333,4.16761481 0.209393939,4.13028148 C0.194848485,3.99339259 0.303333333,3.55368889 0.37969697,3.55546667 C0.652727273,3.56198519 0.794848485,3.50183704 1.05090909,3.43042963 C1.17424242,3.39635556 1.28969697,3.33620741 1.41060606,3.29324444 C1.44787879,3.28020741 1.49181818,3.28257778 1.53242424,3.28465185 C1.57060606,3.28672593 1.61484848,3.31368889 1.64545455,3.30213333 C1.75424242,3.26005926 1.83575758,3.32465185 1.9269697,3.35576296 C1.95424242,3.36524444 1.99060606,3.37235556 2.01636364,3.36346667 C2.1630303,3.3125037 2.30787879,3.25739259 2.45272727,3.20139259 C2.70575758,3.10331852 2.95333333,2.98983704 3.21181818,2.90865185 C3.41575758,2.84494815 3.63242424,2.82035556 3.8430303,2.7770963 C3.8630303,2.77294815 3.88090909,2.75872593 3.90060606,2.7530963 C4.09606061,2.69857778 4.29242424,2.64761481 4.4869697,2.59013333 C4.58151515,2.56257778 4.67121212,2.51961481 4.76575758,2.49028148 C4.86787879,2.45828148 4.97242424,2.43339259 5.07636364,2.40702222 C5.23242424,2.36702222 5.38818182,2.32791111 5.54454545,2.28998519 C5.64666667,2.26539259 5.74969697,2.24524444 5.85121212,2.22005926 C5.92939394,2.2008 6.00666667,2.17739259 6.08272727,2.1530963 C6.0930303,2.14983704 6.09606061,2.1285037 6.10484848,2.11724444 C6.11545455,2.10272593 6.13060606,2.07724444 6.14030303,2.07872593 C6.25484848,2.09561481 6.35212121,1.9925037 6.44909091,2.01265185 C6.56787879,2.03754074 6.66969697,1.97798519 6.78575758,1.99724444 C6.87848485,2.01294815 6.98121212,1.97739259 7.07909091,1.9605037 C7.12575758,1.9525037 7.16969697,1.92968889 7.21636364,1.92346667 C7.34151515,1.90717037 7.43333333,1.82954074 7.53424242,1.76791111 C7.59909091,1.72791111 7.66878788,1.69561481 7.73545455,1.65768889 C7.75060606,1.6490963 7.7669697,1.63517037 7.77363636,1.61976296 C7.85666667,1.42154074 8.03636364,1.31013333 8.1969697,1.18687407 C8.26090909,1.13798519 8.35818182,1.13057778 8.44090909,1.10568889 C8.61515152,1.05265185 8.79848485,1.05413333 8.97575758,0.994874074 C9.13969697,0.940059259 9.33060606,0.961096296 9.50969697,0.951022222 C9.64393939,0.943318519 9.7669697,0.972059259 9.87454545,1.05768889 C9.90545455,1.08228148 9.95030303,1.09561481 9.99090909,1.10124444 C10.1678788,1.12583704 13.0069697,0.513096296 13.09,0.422133333 C13.2112121,0.290281481 13.3630303,0.236948148 13.5433333,0.236355556 C13.6851515,0.235762963 13.8278788,0.205540741 13.969697,0.209985185 C14.1481818,0.215614815 14.3248485,0.242577778 14.4881818,0.328207407 C14.5978788,0.385392593 14.6284848,0.482281481 14.6560606,0.585985185 C14.6857576,0.697096296 14.6087879,0.78242963 14.5839394,0.880207407 C14.5618182,0.967911111 14.5481818,1.05739259 14.5290909,1.14598519 C14.509697,1.23457778 14.4881818,1.32257778 14.4669697,1.41057778 C14.4466667,1.49561481 14.4233333,1.57976296 14.4051515,1.66539259 C14.3890909,1.74302222 14.3836364,1.82302222 14.3630303,1.89946667 C14.34,1.98361481 14.3181818,2.0725037 14.2721212,2.1450963 C14.2242424,2.22065185 14.1469697,2.27842963 14.0842424,2.34539259 C14.0612121,2.36968889 14.0336364,2.39546667 14.0239394,2.42568889 C13.9790909,2.55902222 13.9339394,2.69235556 13.9021212,2.82894815 C13.8854545,2.90094815 13.9033333,2.97976296 13.8942424,3.05383704 C13.8806061,3.16435556 13.8563636,3.2730963 13.8378788,3.38302222 C13.8333333,3.40939259 13.8327273,3.43694815 13.8327273,3.46391111 C13.8324242,3.84317037 13.8336364,4.22272593 13.8312121,4.60198519 C13.8306061,4.66302222 13.809697,4.72346667 13.8048485,4.7848 C13.8012121,4.82568889 13.8027273,4.86894815 13.8118182,4.90865185 C13.8369697,5.01383704 13.8663636,5.11813333 13.8960606,5.22183704 C13.9442424,5.39013333 13.9930303,5.55872593 14.0433333,5.72672593 C14.0909091,5.88524444 14.2366667,5.91428148 14.3690909,5.93176296 C14.4390909,5.94065185 14.6293939,5.96346667 14.6545455,5.97976296 C14.6363636,5.99013333 14.7790909,6.09442963 14.7730303,6.09354074 C14.6575758,6.07161481 14.4536364,6.12583704 14.3939394,6.21205926 C14.3490909,6.27694815 14.2751515,6.24168889 14.2190909,6.29946667 C14.139697,6.38124444 14.190303,6.48405926 14.220303,6.5765037 C14.28,6.75991111 14.339697,6.94331852 14.4030303,7.12554074 C14.4527273,7.26657778 14.5048485,7.40613333 14.5609091,7.5448 C14.6312121,7.71902222 14.7045455,7.89235556 14.7809091,8.06420741 C14.8542424,8.22924444 14.9284848,8.39368889 15.0109091,8.55398519 C15.0687879,8.66568889 15.1451515,8.76791111 15.2054545,8.87842963 C15.260303,8.97828148 15.3030303,9.08405926 15.3542424,9.18568889 C15.3821212,9.2410963 15.4187879,9.29146667 15.4475758,9.34657778 C15.5036364,9.45294815 15.5536364,9.56287407 15.6124242,9.66835556 C15.6724242,9.77620741 15.7393939,9.8810963 15.8045455,9.98598519 C15.9539394,10.2268741 16.1063636,10.4656889 16.2530303,10.7080593 C16.3087879,10.7996148 16.350303,10.8991704 16.4015152,10.9936889 C16.4339394,11.0535407 16.4721212,11.109837 16.5057576,11.1688 C16.5215152,11.195763 16.5324242,11.2253926 16.5533333,11.2713185 C16.5572727,11.3329481 16.4306061,11.2493926 16.4018182,11.1862815 C16.3363636,11.0422815 16.2348485,10.9145778 16.159697,10.7741333 C16.1157576,10.691763 15.9939394,10.5276148 15.9745455,10.5874667 C15.9487879,10.6787259 16.0263636,10.7599111 16.0790909,10.8446519 C16.1551515,10.9667259 16.2260606,11.091763 16.3081818,11.2096889 C16.3857576,11.3216889 16.4757576,11.4256889 16.5593939,11.533837 C16.5718182,11.549837 16.5872727,11.5696889 16.5866667,11.5874667 C16.5854545,11.6345778 16.7012121,11.7353185 16.7012121,11.7640593 C16.7012121,11.7741333 16.6563636,11.7845037 16.6315152,11.7945778 C16.6154545,11.7519111 16.5787879,11.7252444 16.5687879,11.6950222 C16.5548485,11.6526519 16.5272727,11.6176889 16.4845455,11.6449481 C16.4648485,11.6573926 16.4554545,11.7296889 16.4684848,11.7388741 C16.5542424,11.8005037 16.58,11.8882074 16.6133333,11.9791704 C16.6263636,12.0144296 16.84,12.1708741 16.7727273,12.2716148 C16.7475758,12.2526519 16.7345455,12.2236148 16.7157576,12.1987259 C16.6621212,12.1282074 16.6078788,12.0570963 16.549697,11.989837 C16.4793939,11.9083556 16.4018182,11.8322074 16.3327273,11.7492444 C16.2587879,11.6603556 16.1918182,11.5655407 16.1187879,11.475763 C16.1087879,11.4636148 16.0824242,11.4639111 16.0636364,11.4585778 C16.0669697,11.4790222 16.0636364,11.5039111 16.0742424,11.5196148 C16.160303,11.645837 16.2475758,11.771763 16.3375758,11.8956148 C16.4312121,12.0239111 16.5290909,12.149837 16.6236364,12.277837 C16.6372727,12.2959111 16.6481818,12.3187259 16.6509091,12.3406519 C16.6606061,12.4067259 16.6693939,12.4565037 16.7548485,12.4828741 C16.8242424,12.5042074 16.890303,12.5587259 16.9090909,12.6502815 C16.9236364,12.7213926 16.9748485,12.7836148 17.0506061,12.8076148 C17.0754545,12.8153185 17.1127273,12.7972444 17.1390909,12.7827259 C17.1493939,12.7768 17.1542424,12.7356148 17.1466667,12.7305778 C17.07,12.677837 16.9593939,12.285837 16.9418182,12.2369481 C16.9224242,12.1821333 16.7927273,12.0431704 16.739697,11.9966519 C16.7360606,11.9936889 16.8012121,11.9845037 16.8336364,11.9501333" id="Fill-7" fill="#FEFEFE" mask="url(#mask-2)"></path>
                </g>
                <path d="M24.5583287,3.93364423 C24.4809814,3.94642954 24.1882324,5.05251477 24.1490965,5.16321684 C24.1404681,5.18754011 24.1552597,5.2458536 24.1601902,5.24616544 C24.216891,5.24710095 24.2606493,5.281403 24.3108788,5.29699484 C24.3799059,5.31819975 24.4264376,5.27454259 24.472353,5.22714339 C24.5894525,5.10583887 25.6448895,4.52738155 25.7980434,4.45940112 C25.8122186,4.45285255 25.8356385,4.45098153 25.8396446,4.44100275 C25.8997351,4.2906974 26.0507319,4.28446066 26.168756,4.22708269 C26.2279221,4.19870553 26.2901698,4.17531777 26.3518011,4.15193001 C26.4565744,4.11232673 26.5598069,4.06492753 26.66797,4.04029243 C26.7255953,4.02688344 26.7961632,4.04465814 26.8544048,4.06617488 C27.0550149,4.13945654 27.253776,4.2161684 27.45038,4.29974067 C27.5927484,4.36023701 27.7271048,4.43694887 27.835576,4.55388768 C27.8660835,4.58725422 27.9076846,4.61064198 27.9465124,4.63496526 C28.0445062,4.69608527 28.1492796,4.74847386 28.2411103,4.81801347 C28.3012008,4.86354165 28.3495815,4.92871555 28.3930316,4.99233026 C28.4750013,5.11114009 28.5588199,5.2305736 28.6256899,5.3584267 C28.7051944,5.51060307 28.6783847,5.67275822 28.665134,5.84021459 C28.6500343,6.03355343 28.4987293,6.1112008 28.4050497,6.23437634 C28.3671464,6.28427024 28.275932,6.33166943 28.1868747,6.31233555 C28.1748566,6.30952902 28.1585243,6.30641065 28.1498959,6.31264739 C27.990887,6.42397314 26.9829062,6.36940169 26.8118792,6.43457559 C26.7980121,6.43987681 26.7841451,6.44985559 26.7696617,6.45141478 C26.6343809,6.46357641 26.4994082,6.47604989 26.3638192,6.48540499 C26.1755354,6.4981903 25.9869435,6.50317969 25.7989679,6.52064255 C25.7213124,6.5278148 25.6458139,6.55837481 25.5690829,6.57770869 C25.5542914,6.5811389 25.5348775,6.58768747 25.5237839,6.5811389 C25.4233248,6.52407276 25.3367327,6.58612829 25.2458265,6.61107523 C25.1552284,6.63602218 25.0479898,6.63602218 24.9758811,6.68747526 C24.8908299,6.74765976 24.7949931,6.73705731 24.7090174,6.77572508 C24.6489268,6.80254304 24.6070175,6.76730548 24.615954,6.69589485 C24.4517065,6.65785076 24.4304436,6.66595851 24.3626492,6.80659692 C24.3352232,6.86335123 24.3222806,6.92790145 24.2911568,6.98153738 C24.2726674,7.01365658 24.2270602,7.02768923 24.201175,7.0570019 C24.087157,7.18423132 23.9367765,7.24472767 23.7833144,7.30304115 C23.7386317,7.31988034 23.6988795,7.35137586 23.6578946,7.37819383 C23.593798,7.41997996 23.5238464,7.4558412 23.4696108,7.50854162 C23.4172242,7.55905919 23.3614478,7.55781184 23.298892,7.5634249 C23.1648438,7.57465103 23.0341853,7.60365185 22.9140042,7.67225596 C22.7796478,7.74959149 22.6452915,7.82942172 22.5038475,7.89147725 C22.3383673,7.9647589 22.1879868,7.99718993 22.0286698,8.0807622 C21.8924645,8.15217283 21.7353045,8.17337774 21.6034134,8.23449776 C21.5513349,8.25850919 21.5014135,8.28688634 21.4397822,8.31900554 C21.425607,8.26661695 19.8607869,9.24640826 20.1196386,8.94080817 C20.0768048,8.96856165 21.0481149,8.22514265 20.8166892,8.3576733 C20.5193179,8.47492395 21.0980363,7.9351344 21.1682961,7.88679969 C21.2518066,7.82910988 21.331311,7.76455966 21.4065013,7.69626739 C21.5661265,7.5515751 21.7220538,7.40282894 21.8785974,7.25408277 C21.9753587,7.16209091 22.0089477,7.0570019 21.9516306,6.92478308 C21.9109539,6.83123203 21.8819872,6.73144425 21.8557938,6.63228014 C21.8465491,6.59704258 21.8616488,6.55525644 21.8628814,6.51627684 C21.8690446,6.31576576 21.8761322,6.114631 21.8801382,5.91411992 C21.881679,5.80591254 21.918966,5.72140476 22.0070988,5.65435985 C22.0980051,5.58482023 22.1787421,5.50218347 22.2665668,5.42858998 C22.2936846,5.40613773 22.3306634,5.39553528 22.3599383,5.3762014 C22.3959927,5.35218996 22.9383486,4.8588641 23.0773273,4.81863715 C23.1133816,4.80865837 23.6554294,4.32437578 23.7438704,4.25795453 C23.7808492,4.23020105 24.0461722,3.86940584 24.1241358,3.82169481 C24.1620391,3.79830705 24.2264439,3.73843438 24.220897,3.69758375 C24.205181,3.65922782 24.1016404,3.67980905 24.04987,3.69384171 C23.8270727,3.75527357 23.7786921,3.8089095 23.5595926,3.88156748 C23.4890247,3.90464341 23.4341728,3.97075281 23.3660702,4.0053667 C23.2076776,4.0858206 23.0443545,4.15660756 22.8856538,4.23674963 C22.8264877,4.26637413 22.7750255,4.31252598 22.7186328,4.34932272 C22.640361,4.40046396 22.5611647,4.44942234 22.4825847,4.49993991 C22.4671769,4.51023052 22.451769,4.52176849 22.4385183,4.5345538 C22.3670259,4.60565259 22.2992314,4.68111711 22.2231167,4.74691468 C22.1929173,4.77279713 22.1448449,4.78527061 22.10386,4.78870081 C21.9633405,4.80055061 21.8554857,4.89160697 21.8508633,5.03536374 C21.8456247,5.18598093 21.7547184,5.24460625 21.6453228,5.3228773 C21.5217519,5.41143896 21.3987973,5.40707324 21.2669062,5.41019161 C21.107281,5.41424549 20.3883513,4.8410894 20.3020674,4.67924609 C20.263856,4.60752362 20.2302669,4.52457502 20.1427503,4.47405745 C20.0352036,4.41231376 19.9655602,4.1272949 20.0176387,4.01004425 C20.0367444,3.9663871 20.0965268,3.9367626 20.1436748,3.91088014 C20.2792638,3.83541563 20.38188,3.72814376 20.4687802,3.59966699 C20.5831064,3.43096326 20.7079099,3.26974362 20.8237768,3.10228725 C20.9122178,2.97474599 21.1991118,2.49077523 21.2776917,2.42684868 C21.4326946,2.30024293 21.4970994,2.11314083 21.6052624,1.95566323 C21.6847668,1.84059544 21.7667365,1.72708684 21.8422349,1.60921252 C21.9251291,1.47980023 21.9963133,1.34196836 22.0832135,1.2153626 C22.1710382,1.08719767 22.2286635,0.950301301 22.2758115,0.801555134 C22.3177208,0.669336319 22.3818174,0.537741178 22.4631708,0.426727267 C22.5922885,0.25053946 22.7435935,0.0915026774 22.9891944,0.0952447194 C23.0135388,0.0955565562 23.045279,0.0980512508 23.0616113,0.0846422672 C23.1565236,0.00605938665 23.2730068,0.0135434705 23.3830188,0.000446323756 C23.4193813,-0.00391939183 23.458209,0.0250814331 23.4967286,0.0291353119 C23.6988795,0.0500283793 23.888704,0.113331255 24.0735981,0.195968015 C24.0816102,0.19939822 24.0942446,0.203763935 24.0960936,0.210312509 C24.124444,0.322573767 24.2196644,0.372779496 24.2970118,0.442630945 C24.4171929,0.550838325 24.5321354,0.665906114 24.6399903,0.78721064 C24.8140988,0.983356004 24.9878992,1.18542627 25.058159,1.44549818 C25.0843523,1.54310311 25.0664792,1.65785906 25.0486061,1.76107705 C25.022721,1.90888771 24.9678691,2.05139714 24.9447573,2.1992078 C24.9287331,2.29930742 24.9989929,2.33672784 25.0957541,2.30367313 C25.1287269,2.29244701 25.1684791,2.30304946 25.2054579,2.30180211 C25.2467509,2.30024293 25.2923581,2.3067915 25.3290288,2.29213517 C25.447361,2.24473597 25.5601464,2.18392779 25.6790949,2.13839961 C25.7749316,2.10191471 26.0981881,1.98591141 26.1610521,1.9553514 C26.3419401,1.86772525 26.5249852,1.78384114 26.7046406,1.69403213 C26.8020182,1.64538559 27.4768815,1.36036673 27.5856608,1.36504428 C27.6546879,1.36753898 27.7261803,1.32949488 27.7933585,1.33791448 C27.9532918,1.35787203 28.1095273,1.40651858 28.2697688,1.4202394 C28.3896418,1.43115369 28.4454182,1.51347861 28.5199921,1.58145904 C28.5936416,1.64881579 28.674995,1.70744112 28.743714,1.77916359 C28.8333876,1.87271464 28.9378527,1.95566323 28.9840762,2.08445184 C28.991472,2.10472124 29.0037983,2.12842084 28.9988678,2.14650737 C28.9615808,2.28776945 28.9492545,2.43090256 28.8725235,2.56748709 C28.7717562,2.74741694 28.6127473,2.80479491 28.4463427,2.87028065 C28.4158352,2.88244228 28.3942642,2.91861536 28.3637567,2.92890597 C28.2253943,2.97661701 28.0854911,3.01746763 27.9468206,3.06299581 C27.9104581,3.07484561 27.8762527,3.09386765 27.8411228,3.11039501 C27.6944402,3.1814938 27.5440597,3.2466677 27.4019994,3.32587425 C27.3061626,3.37919835 27.1841325,3.36641304 27.1049363,3.45965225 C27.0861387,3.4821045 27.0423804,3.48023348 27.0131055,3.49582532 C26.8473172,3.58438698 26.6038733,3.59374209 26.4365442,3.67980905 C26.3863147,3.70569151 26.3271486,3.72065968 26.271064,3.72689641 C26.1299282,3.74248826 25.987868,3.7496605 25.8461159,3.76026295 C25.836563,3.76088663 25.8251612,3.764005 25.8183817,3.75995112 C25.6957353,3.68916416 25.5860315,3.76182214 25.4772522,3.79799521 C25.4131556,3.81951195 24.6409147,3.91992341 24.5583287,3.93364423" id="Fill-10" fill="#FEFEFE"></path>
            </g>
        </g>
    </g>
</svg>