<?xml version="1.0" encoding="UTF-8"?>
<svg width="128px" height="128px" viewBox="0 0 128 128" version="1.1" xmlns="http://www.w3.org/2000/svg" xmlns:xlink="http://www.w3.org/1999/xlink">
    <!-- Generator: Sketch 49.3 (51167) - http://www.bohemiancoding.com/sketch -->
    <title>pcfhdbu@3x</title>
    <desc>Created with Sketch.</desc>
    <defs></defs>
    <g id="Page-1" stroke="none" stroke-width="1" fill="none" fill-rule="evenodd" opacity="0.504528986">
        <g id="首页" transform="translate(-1724.000000, -7596.000000)" fill="#00BBEB" fill-rule="nonzero">
            <g id="pcfhdbu" transform="translate(1724.000000, 7596.000000)">
                <path d="M63.9999999,0 C28.6537759,6.91046184e-08 -4.60697322e-08,28.6537761 0,64.0000001 C4.60697322e-08,99.3462241 28.6537761,128 64,128 C99.346224,128 128,99.346224 128,64 C128,47.0261446 121.257162,30.7474942 109.254834,18.745166 C97.2525057,6.74283774 80.9738552,-3.31852081e-08 63.9999999,0 Z M95.84,69.2000001 C94.172775,70.8619829 91.475225,70.8619829 89.808,69.2000001 L68.3359999,47.6640001 L68.3359999,90.768 C68.3359999,93.1273605 66.4233604,95.04 64.0639999,95.04 C61.7046395,95.04 59.7919999,93.1273605 59.7919999,90.768 L59.7919999,47.6640001 L38.2559999,69.2000001 C36.5661361,70.710012 33.9912198,70.6377063 32.3887568,69.0352433 C30.7862937,67.4327802 30.713988,64.8578639 32.224,63.1680001 L61.024,34.3680001 C62.6912249,32.7060172 65.388775,32.7060172 67.0559999,34.3680001 L95.856,63.1680001 C97.5313239,64.8219684 97.5527903,67.5195799 95.9039999,69.2000001 L95.84,69.2000001 Z" id="Shape"></path>
            </g>
        </g>
    </g>
</svg>