<?xml version="1.0" encoding="UTF-8"?>
<svg width="80px" height="80px" viewBox="0 0 80 80" version="1.1" xmlns="http://www.w3.org/2000/svg" xmlns:xlink="http://www.w3.org/1999/xlink">
    <!-- Generator: Sketch 49.3 (51167) - http://www.bohemiancoding.com/sketch -->
    <title>pchj@3x</title>
    <desc>Created with Sketch.</desc>
    <defs></defs>
    <g id="Page-1" stroke="none" stroke-width="1" fill="none" fill-rule="evenodd">
        <g id="首页" transform="translate(-392.000000, -5143.000000)" fill="#16A5EC" fill-rule="nonzero">
            <g id="Group-2" transform="translate(392.000000, 4637.000000)">
                <g id="pchj" transform="translate(7.000000, 513.000000)">
                    <path d="M29.221542,53.1639925 C28.7533951,52.6529999 28.3116717,52.1129106 27.8801767,51.5623438 C26.9825674,50.7933523 26.1214789,49.9867219 25.3240556,49.0918007 C25.6083532,49.1261694 25.9047151,49.1188285 26.1930778,49.1427198 C25.5469171,48.0864325 24.9743224,46.9760895 24.4875546,45.8199661 C23.8639489,45.7179945 23.2362125,45.6429839 22.6287363,45.4973006 C20.3754026,41.948581 18.831436,37.7983755 18.2302542,33.2954069 C19.6862957,33.8625908 21.2137395,34.3006417 22.7801956,34.6316491 C22.8824142,33.6689915 23.0419382,32.6939211 23.2771262,31.7073055 C21.4181768,31.3035565 19.6412513,30.7124814 17.9705441,29.9516983 C17.9623483,29.6644693 17.943924,29.3793091 17.943924,29.0890103 C17.943924,25.6911793 18.4879316,22.4286876 19.4797604,19.3981681 C21.8947161,21.0851046 24.7801792,22.1008835 27.8883726,22.2902117 C28.8413202,21.0684874 29.8555728,19.8894071 30.9741421,18.8050242 C30.2891003,18.9184743 29.5876669,18.9965546 28.8719399,18.9965546 C25.814823,18.9965546 23.0052208,17.9465404 20.7495267,16.1856612 C22.7085311,11.9022519 25.6124183,8.24321873 29.1624007,5.57080113 C32.1519838,7.81971611 34.6426037,10.8011852 36.5444338,14.2395913 C37.464598,13.5829153 38.3930237,12.9626768 39.3173842,12.361191 C37.7365691,9.55129857 35.797956,7.01315252 33.5302632,4.88282628 C36.5852819,5.44387047 39.4481899,6.57289933 42.0104087,8.15586214 C41.7712211,9.30684693 41.3458894,10.3766148 40.8387303,11.3975324 C42.4480014,10.3994383 44.0329473,9.45660109 45.4908247,8.60225498 C46.3319519,8.11418992 47.1683834,7.61778869 48,7.1131221 C42.9122143,2.70051318 36.3563227,0 29.170531,0 C22.9867965,0 17.261046,1.98357518 12.537287,5.32828482 L12.1447387,5.32828482 C12.1447387,5.43025646 12.1508364,5.52702273 12.1569997,5.62899437 C9.54980207,7.54176333 7.2532599,9.88430803 5.39640858,12.5567924 C5.09394901,12.9813627 4.80761886,13.4246857 4.5335497,13.8721464 C3.79330071,15.0596354 3.1348135,16.2927714 2.57048019,17.5780278 C1.44371501,20.1266513 0.670682632,22.8605321 0.292427856,25.7306866 C0.120642882,27.0284225 -7.46004888e-10,28.3469798 0,29.6904961 C0,44.5294376 10.7623942,56.8230257 24.753559,59 C25.6942457,57.9115462 27.1256342,56.1288445 29.2216075,53.1639925 L29.221542,53.1639925 Z M24.7862769,4.88596284 C22.1667527,7.35236837 19.9481039,10.3329031 18.2631031,13.685888 C17.1097834,12.1664572 16.2569562,10.4015071 15.8132658,8.47725964 C18.5003237,6.72171919 21.5308205,5.48537987 24.7862769,4.88596284 Z M12.9790104,10.6325449 C13.7663364,13.0801978 15.0852778,15.2739894 16.7887028,17.0817169 C15.5208379,20.5179207 14.7826871,24.2446236 14.6824355,28.1503107 C11.2449001,25.9148762 8.43116717,22.9104502 6.57234885,19.3930294 C8.0590101,16.0118823 10.25117,13.0334163 12.979076,10.6325449 L12.9790104,10.6325449 Z M4.38641784,29.6852907 C4.38641784,27.3666373 4.71766123,25.1292675 5.2984518,22.9812564 C7.66233106,26.5320449 10.9137223,29.4999666 14.7582307,31.6428391 C15.0812127,36.0782048 16.224304,40.239822 18.0218173,43.9675259 C11.6212535,41.2014118 6.63168679,36.0937541 4.39048298,29.8329761 C4.39461369,29.7872624 4.38641784,29.7414152 4.38641784,29.6852907 Z M6.08361404,38.8120189 C9.68270594,43.147415 14.6640768,46.4432076 20.3980232,48.1020485 C21.9500545,50.3926064 23.7678936,52.4437178 25.8087909,54.1931186 C26.0214239,54.2795409 26.2423184,54.3471438 26.4651799,54.418951 C26.293395,54.5157173 26.1277077,54.5937977 25.9559883,54.690564 C16.8603673,53.4833212 9.31461402,47.2445659 6.08361404,38.8120189 Z" id="Shape"></path>
                    <path d="M55.4203149,5.46083711 C55.8849942,10.0958703 33.0769434,16.2358213 27.3687992,29.5168001 C22.9623238,39.7498977 28.7053454,48.428869 34.6067983,52.6105907 C23.2809008,69.2401173 22.822419,65.7330458 22,66.7228278 L28.3886805,68 C28.3886805,68 39.208824,49.5617186 40.3067012,47.6325519 C40.2656924,47.5933834 37.3334265,44.9751672 34.8740812,41.9200203 C34.2614536,41.1486046 33.6732203,40.3616008 33.1737296,39.5767766 C32.6802387,38.7971045 32.2544585,38.0357947 31.9954829,37.3385549 C31.8535342,36.992511 31.7281341,36.6793607 31.6807959,36.3786282 C31.6252163,36.0830476 31.5326497,35.8358168 31.5470885,35.6122324 C31.5470885,35.1889082 31.5430008,34.943791 31.5430008,34.943791 L31.6335236,35.603976 C31.6335236,35.8172563 31.7609675,36.0511447 31.8473367,36.3333168 C31.9255305,36.6124505 32.0858738,36.9028791 32.2585462,37.2160293 C32.5896499,37.8545493 33.0832068,38.5385789 33.6527817,39.2328464 C34.2161592,39.9300862 34.8823885,40.6274581 35.5608149,41.3032312 C36.9366558,42.6473136 38.4190407,43.8730977 39.5541687,44.7618869 C40.3313593,45.3686361 40.9112194,45.7919603 41.2197749,46.0123742 C42.3198279,44.038887 43.4466487,41.9603117 44.5776231,39.7704397 L44.5509212,39.8075606 C44.5509212,39.8075606 42.2828408,37.78361 40.3869388,35.4341575 C39.9201498,34.8357307 39.463646,34.2362472 39.0853359,33.6357728 C38.7028062,33.0341756 38.3780318,32.4543093 38.1805035,31.9217359 C38.0736959,31.6560767 37.9811292,31.4160455 37.9419664,31.1853936 C37.8968039,30.9618092 37.8269174,30.7723074 37.8393124,30.6024229 C37.8372686,30.2748073 37.8351588,30.0863624 37.8351588,30.0863624 C37.8351588,30.0863624 37.8598168,30.2727598 37.9010235,30.5993185 C37.9010235,30.7620033 38.0016996,30.9402103 38.0655205,31.1534246 C38.1231439,31.3686865 38.2464342,31.5869868 38.3780318,31.8341516 C38.6310077,32.3213476 39.0113617,32.8425601 39.4432075,33.3740106 C39.879075,33.906584 40.3870048,34.441139 40.9052197,34.9602379 C41.9601102,35.9871408 43.0951064,36.9234211 43.9628198,37.605337 C44.5263291,38.0461648 44.9538894,38.3603058 45.198624,38.5333608 C46.3994849,36.1685183 47.5982361,33.6934358 48.7682415,31.1234373 L48.6468632,31.2830838 C48.6468632,31.2830838 46.8292209,29.6660105 45.3137389,27.7820891 C44.9374727,27.311406 44.5775572,26.8231531 44.2753311,26.3462612 C43.9709952,25.87036 43.7078,25.4007337 43.5515444,24.9784663 C43.4671531,24.7662428 43.3910032,24.5736366 43.3623234,24.3872392 C43.3253363,24.2069186 43.2677129,24.0555285 43.2800419,23.9185376 C43.2800419,23.6579644 43.2758883,23.507499 43.2758883,23.507499 C43.2758883,23.507499 43.2943489,23.6610028 43.329358,23.916424 C43.329358,24.0431768 43.4074199,24.1913964 43.4609556,24.3572518 C43.5123815,24.529316 43.6090359,24.7064662 43.7137997,24.8990724 C43.9132399,25.2945889 44.2216635,25.7097227 44.5670742,26.1340377 C44.9125509,26.5564371 45.315585,26.9859041 45.7351017,27.4040763 C46.5780911,28.2260874 47.4849013,28.9737906 48.1778325,29.516668 C48.6344023,29.873016 48.9757253,30.1234173 49.168968,30.2613328 C49.1731216,30.2428384 49.181363,30.22943 49.1895384,30.21404 C49.1895384,30.21404 49.9956725,28.4258932 50.3615876,27.5689408 C54.1060533,18.8755702 52.7036423,22.5486952 49.7345212,30.0646314 C50.0120892,30.0491754 50.3574999,30.024406 50.7913236,29.9853696 C51.759845,29.9018805 53.0553823,29.7504904 54.3239541,29.4929555 C54.9552401,29.3569554 55.588504,29.207613 56.1644083,29.019168 C56.7399829,28.8296001 57.2705928,28.6277467 57.6982191,28.3887062 C57.9079445,28.2713327 58.1052749,28.1651879 58.253487,28.0324243 C58.4034793,27.9046807 58.5619106,27.8182193 58.6420823,27.7007136 C58.8290617,27.4824134 58.9319794,27.3577741 58.9319794,27.3577741 C58.9319794,27.3577741 58.8435005,27.4926513 58.6811133,27.735787 C58.6153145,27.8696734 58.4692781,27.9757521 58.3273953,28.1221223 C58.19171,28.2765508 58.0026209,28.4094464 57.7969832,28.5536369 C57.3938832,28.851265 56.875866,29.1283511 56.308269,29.3889244 C55.740672,29.6546496 55.1155834,29.8833861 54.4823854,30.1016863 C51.949,30.9349923 49.3006315,31.3468895 49.3006315,31.3468895 L49.2861268,31.1976131 C48.4107426,33.413032 47.5313581,35.6268624 46.6479776,37.8390933 C46.9522475,37.8225804 47.2915926,37.7968203 47.7028021,37.761813 C48.9510013,37.6474778 50.6206951,37.4559284 52.2574236,37.1263974 C53.0758868,36.950238 53.8942181,36.7534705 54.6385752,36.5114578 C55.3809543,36.269379 56.0656442,36.0086736 56.6084513,35.6977031 C56.8840414,35.5503421 57.1390612,35.4123605 57.3302601,35.2424099 C57.5256126,35.0776114 57.7291405,34.9653238 57.8298826,34.8139337 C58.0684197,34.529582 58.2081927,34.3720491 58.2081927,34.3720491 C58.2081927,34.3720491 58.0930778,34.5451041 57.8852643,34.8593111 C57.7949393,35.0323661 57.6119158,35.1651297 57.4288264,35.3587927 C57.2499565,35.556551 57.0113535,35.7265015 56.7461804,35.9150786 C56.2300752,36.3013479 55.5556046,36.6525438 54.8256204,36.9923789 C54.0914826,37.3312232 53.289634,37.6258129 52.4732147,37.9080511 C49.6768319,38.8288753 46.7877506,39.3449358 46.0083843,39.4757178 C45.1468025,41.643925 43.902757,43.8471394 43.0577237,45.9854252 C43.3990467,45.9648171 44.1516452,45.9350279 44.6060392,45.8958594 C46.0392398,45.7680497 47.9515585,45.5445974 49.8330216,45.1634801 C50.7685776,44.9637403 51.7063093,44.7400899 52.5576718,44.4640606 C53.4089025,44.1869745 54.1965101,43.8841943 54.8194229,43.5278464 C55.1361538,43.3567729 55.4281607,43.1971264 55.6461274,43.0033973 C55.8682478,42.8252564 56.1005874,42.691436 56.2197901,42.5131629 C56.4973581,42.1918223 56.6537456,42.0054249 56.6537456,42.0054249 C56.6537456,42.0054249 56.5179285,42.2052308 56.2814352,42.5636263 C56.180825,42.7582801 55.9647703,42.9148883 55.7571546,43.1333206 C55.5556706,43.361925 55.2800804,43.5566448 54.9758764,43.7719067 C54.3794677,44.2137914 53.6104525,44.6237071 52.7715509,45.006872 C51.9284297,45.4003409 51.0030929,45.7360807 50.0715587,46.0555059 C46.8988437,47.1029509 43.1521364,47.5046762 42.2146025,47.6674271 C41.2421254,50.1364329 39.5127643,52.6506839 38.7437491,54.6436564 C46.3539268,57.3835394 59.4502603,57.9480157 64.7346023,45.6558281 C70.4431421,32.3689047 54.9597234,0.825737854 55.4203149,5.46083711 Z" id="Shape"></path>
                </g>
            </g>
        </g>
    </g>
</svg>