<?xml version="1.0" encoding="UTF-8"?>
<svg width="80px" height="80px" viewBox="0 0 80 80" version="1.1" xmlns="http://www.w3.org/2000/svg" xmlns:xlink="http://www.w3.org/1999/xlink">
    <!-- Generator: Sketch 49.3 (51167) - http://www.bohemiancoding.com/sketch -->
    <title>pcjc@3x</title>
    <desc>Created with Sketch.</desc>
    <defs></defs>
    <g id="Page-1" stroke="none" stroke-width="1" fill="none" fill-rule="evenodd">
        <g id="首页" transform="translate(-1094.000000, -4645.000000)" fill="#16A5EC" fill-rule="nonzero">
            <g id="Group-2" transform="translate(392.000000, 4637.000000)">
                <g id="pcjc" transform="translate(704.000000, 10.000000)">
                    <path d="M22.2740301,9.47754208 L37.7290249,17.9597135 C37.8112794,18.0023799 37.9044554,18.029504 37.9972495,18.029504 C38.0900437,18.029504 38.1836015,18.0081335 38.2653978,17.9597135 L53.720469,9.47754208 C53.8904006,9.38115037 53.999997,9.20413335 53.999997,9.0115741 C54.0006552,8.81797878 53.8935366,8.63938535 53.720469,8.54553141 L38.2657797,0.0683664237 C38.1009493,-0.0227888079 37.8993542,-0.0227888079 37.7345238,0.0683664237 L22.2740301,8.54515779 C22.1041615,8.64146649 21.9997047,8.81911674 22.000001,9.01120049 C21.999627,9.20338275 22.10409,9.38115743 22.2740301,9.47754208 Z M53.7209273,33.852016 L38.2657797,25.3698446 C38.1009493,25.2786894 37.8993542,25.2786894 37.7345238,25.3698446 L22.2740301,33.8520907 C22.1041851,33.9483861 21.999732,34.1260016 22.000001,34.3180587 C22.000001,34.334124 22.0054235,34.3501893 22.0054235,34.3661051 C22.000001,34.3982357 22.000001,34.4358957 22.000001,34.4839421 L22.000001,66.6548613 C22.000001,67.120904 22.2572278,67.5442056 22.6680423,67.7749479 L37.3564737,75.833743 C37.5523809,75.9409905 37.7727674,75.9981725 37.9972495,76 C38.2162895,76 38.440752,75.9462 38.6380254,75.833743 L53.3263804,67.7749479 C53.7413659,67.5488951 53.997464,67.1195516 53.9944981,66.6548613 L53.9944981,34.484241 C53.9944981,34.4415746 53.9944981,34.4038399 53.9889992,34.366404 C53.9889992,34.3504135 53.9944981,34.3344229 53.9944981,34.3183576 C53.9948566,34.1262768 53.8905748,33.9485629 53.7208509,33.852016 L53.7209273,33.852016 Z M36.6882796,72.522501 L24.6177881,65.8997929 L24.6177881,36.0702956 L36.6830098,42.6929289 L36.6830098,72.5220527 L36.6884323,72.5220527 L36.6882796,72.522501 Z M51.3768637,65.8997929 L39.311642,72.522501 L39.311642,42.6879973 L51.3768637,36.0653639 L51.3768637,65.8997182 L51.3768637,65.8997929 Z" id="Shape"></path>
                    <path d="M31.3076246,22.060517 C31.3082686,21.8660009 31.2034676,21.6865582 31.0341447,21.5922579 L15.9192971,13.0698222 C15.758033,12.9782334 15.5607998,12.9782334 15.3995357,13.0698222 L0.273479938,21.5922579 C0.105899135,21.688341 0.00175475193,21.8666596 0,22.060517 C0,22.071178 0.0053799332,22.0765836 0.0053799332,22.0873197 C0.0053799332,22.0980558 0,22.1033863 0,22.1141224 C0,22.130189 0.0053799332,22.1463307 0.0053799332,22.1623973 C0.0053799332,22.194981 0,22.2329703 0,22.2757645 L0,54.5997568 C0,55.0679408 0.251736041,55.4932555 0.653661884,55.7250952 L15.0242107,63.8222162 C15.2158722,63.93 15.4314907,63.9874798 15.6511223,63.989339 C15.865423,63.989339 16.0851036,63.9352831 16.278034,63.8222162 L16.9316959,63.450582 L16.9316959,30.4695104 L31.0292131,22.5237459 C31.2057795,22.4321512 31.3076246,22.2543674 31.3076246,22.060517 Z M14.3706235,60.500332 L2.5664523,53.8461277 L2.5664523,23.8746925 L14.3706235,30.5288968 L14.3706235,60.500332 Z M76,22.1145729 C76,22.1037617 75.9946948,22.0984312 75.9946948,22.0876951 C75.9946948,22.076959 76,22.0716285 76,22.0608924 C76,22.017948 75.9946948,21.9692977 75.9840096,21.9263533 L75.9840096,21.9156172 C75.9442163,21.7782655 75.854355,21.6610334 75.7323483,21.5873028 L61.54397,13.5923624 L60.6116724,13.0701225 C60.5689319,13.0486503 60.5258177,13.0325837 60.4831518,13.0160666 C60.4393031,13.0054352 60.3943585,13.0000424 60.3492513,13 C60.2580913,13 60.1669313,13.0214722 60.0865312,13.0701225 L58.2271665,14.1199328 L44.9658553,21.5926333 C44.8402337,21.6622465 44.7490714,21.7812029 44.714194,21.9210228 C44.6989024,21.9660113 44.6916671,22.0133668 44.6928237,22.0608924 C44.692207,22.2553815 44.7970042,22.4347891 44.9663036,22.5290764 L59.0634472,30.4752914 L59.0634472,63.4613181 L59.7170344,63.8329523 C59.9099648,63.9406136 60.1296454,64 60.3439461,64 C60.5582467,64 60.7779273,63.9459441 60.9708577,63.8329523 L75.3414812,55.7358313 C75.7474591,55.5086838 75.9979851,55.0773023 75.9950684,54.6104178 L75.9950684,22.2758396 C75.9950684,22.2328952 75.9950684,22.194981 75.9896885,22.1574422 C75.9960534,22.1440011 75.999565,22.1293763 76,22.1144978 L76,22.1145729 Z M73.4336224,53.8461277 L61.6298248,60.5002569 L61.6298248,30.5236414 L73.4336224,23.8694371 L73.4336224,53.8462028 L73.4336224,53.8461277 Z" id="Shape"></path>
                </g>
            </g>
        </g>
    </g>
</svg>