<?xml version="1.0" encoding="UTF-8"?>
<svg width="80px" height="80px" viewBox="0 0 80 80" version="1.1" xmlns="http://www.w3.org/2000/svg" xmlns:xlink="http://www.w3.org/1999/xlink">
    <!-- Generator: Sketch 49.3 (51167) - http://www.bohemiancoding.com/sketch -->
    <title>pcjj@3x</title>
    <desc>Created with Sketch.</desc>
    <defs></defs>
    <g id="Page-1" stroke="none" stroke-width="1" fill="none" fill-rule="evenodd">
        <g id="首页" transform="translate(-747.000000, -5137.000000)" fill="#16A5EC" fill-rule="nonzero">
            <g id="Group-2" transform="translate(392.000000, 4637.000000)">
                <g id="pcjj" transform="translate(358.000000, 508.000000)">
                    <path d="M14.9133914,36.7558623 C15.2902694,28.2692349 11.435238,25.0602289 6.39144691,23.3306996 C3.33704702,-4.91764604 54.00371,-4.55393344 64.7044222,8.78977277 C67.2731932,11.9949901 68.73008,17.8352295 68.7413301,23.3306996 C63.6600387,25.0128704 59.4712546,27.8070168 60.2193857,36.7558623 C60.2193857,36.7558623 38.2629567,25.3159643 14.9133914,36.7558623 Z M12.6483729,40.1107322 C16.0346505,25.2212475 1.14515415,21.9932981 0.0895205475,33.9598217 C-0.688610795,42.7533316 3.79080072,52.9865373 6.36707171,57.4495941 C6.80207526,57.5878807 7.2239537,57.7356389 7.67020734,57.8587708 L9.25459525,57.8587708 L9.25459525,60.6889095 C9.25459525,61.9637979 10.6571067,63 12.3896208,63 C14.1221349,63 15.5265214,61.9637979 15.5265214,60.6889095 L15.5265214,57.8587708 L59.4675045,57.8587708 L59.4675045,60.6889095 C59.4675045,61.9637979 60.873766,63 62.6062801,63 C64.3406692,63 65.7431807,61.9637979 65.7431807,60.6889095 L65.7431807,57.8587708 L67.1606922,57.8587708 C67.7288219,57.5992467 68.1563254,57.1616549 68.7169549,56.8907648 C71.4188519,50.9558086 76.5413937,41.0541118 74.5520025,31.7207159 C73.2094915,25.4561452 64.3369192,24.1471587 62.4394038,31.7207159 C61.5975219,35.0812689 63.7519145,37.0684278 61.5393964,40.6714558 C61.5393964,40.6714558 39.1854642,27.1799914 12.6483729,40.1107322 Z" id="Shape"></path>
                </g>
            </g>
        </g>
    </g>
</svg>