<?xml version="1.0" encoding="UTF-8"?>
<svg width="80px" height="80px" viewBox="0 0 80 80" version="1.1" xmlns="http://www.w3.org/2000/svg" xmlns:xlink="http://www.w3.org/1999/xlink">
    <!-- Generator: Sketch 49.3 (51167) - http://www.bohemiancoding.com/sketch -->
    <title>pcjra@3x</title>
    <desc>Created with Sketch.</desc>
    <defs></defs>
    <g id="Page-1" stroke="none" stroke-width="1" fill="none" fill-rule="evenodd">
        <g id="首页" transform="translate(-744.000000, -4641.000000)" fill="#16A5EC" fill-rule="nonzero">
            <g id="Group-2" transform="translate(392.000000, 4637.000000)">
                <g id="pcjra" transform="translate(359.000000, 10.000000)">
                    <path d="M6.74431916,51.7577785 C5.08831019,51.7577785 3.7414229,53.1047173 3.7414229,54.7607896 C3.7414229,56.4168618 5.08095015,57.7638006 6.74431916,57.7638006 L59.2361234,57.7638006 C60.8921323,57.7638006 62.2316596,56.4168618 62.2316596,54.7607896 C62.2316596,53.1047173 60.8921323,51.7577785 59.2361234,51.7577785 L58.4853993,51.7577785 L58.4853993,24.7527601 L59.2361234,24.7527601 C60.0604478,24.7527601 60.7375715,24.0756106 60.7375715,23.2512546 C60.7375715,22.4268986 60.0678079,21.7571094 59.2361234,21.7571094 L6.74431916,21.7571094 C5.91999469,21.7571094 5.25023107,22.4268986 5.25023107,23.2512546 C5.25023107,24.0756106 5.9199947,24.7527601 6.74431916,24.7527601 L7.49504322,24.7527601 L7.49504322,51.7504182 L6.74431916,51.7504182 L6.74431916,51.7577785 Z M43.4929981,24.7527601 L52.4943269,24.7527601 L52.4943269,51.7504182 L43.4929981,51.7504182 L43.4929981,24.7527601 Z M28.4932369,24.7527601 L37.4872056,24.7527601 L37.4872056,51.7504182 L28.4932369,51.7504182 L28.4932369,24.7527601 Z M13.4934757,24.7527601 L22.4948044,24.7527601 L22.4948044,51.7504182 L13.4934757,51.7504182 L13.4934757,24.7527601 Z M2.99805887,19.5048511 L62.9971037,19.5048511 C64.6531127,19.5048511 66,18.1579123 66,16.5018401 C66,15.1843426 65.1535954,14.0655738 63.968629,13.6607561 L34.2193479,0.264971562 C33.4391837,-0.0883238541 32.5412588,-0.0883238541 31.7610946,0.264971562 L1.76893222,13.7711609 C0.480925244,14.3526263 -0.232998621,15.7510873 0.0687630132,17.1348277 C0.363164607,18.5185681 1.58493122,19.5048511 2.99805887,19.5048511 Z M62.9897437,60.0013382 L3.00541891,60.0013382 C1.34940995,60.0013382 0.00252265495,61.348277 0.00252265495,63.0043493 C0.00252265495,64.6604215 1.34204991,66 3.00541891,66 L62.9897437,66 C64.6457527,66 65.99264,64.6530612 65.99264,63.0043493 C65.9852799,61.348277 64.6457527,60.0013382 62.9897437,60.0013382 Z" id="Shape"></path>
                </g>
            </g>
        </g>
    </g>
</svg>