<?xml version="1.0" encoding="UTF-8"?>
<svg width="80px" height="80px" viewBox="0 0 80 80" version="1.1" xmlns="http://www.w3.org/2000/svg" xmlns:xlink="http://www.w3.org/1999/xlink">
    <!-- Generator: Sketch 49.3 (51167) - http://www.bohemiancoding.com/sketch -->
    <title>pcjtaf@3x</title>
    <desc>Created with Sketch.</desc>
    <defs></defs>
    <g id="Page-1" stroke="none" stroke-width="1" fill="none" fill-rule="evenodd">
        <g id="首页" transform="translate(-394.000000, -4641.000000)" fill="#16A5EC" fill-rule="nonzero">
            <g id="Group-2" transform="translate(392.000000, 4637.000000)">
                <g id="pcjtaf" transform="translate(14.000000, 9.000000)">
                    <path d="M27.7267546,0 C27.8141931,0 27.9016317,0 27.997814,0 C28.0939964,0 28.1814349,0 28.2732454,0 L27.7267546,0 Z M54.2206261,10.1779314 C53.4686549,6.37494624 50.1022718,4.85814869 46.4735733,3.33695462 C42.8973378,1.83774312 34.3283629,0.0483616611 27.997814,0 C21.6716371,0.0483616611 13.0982903,1.83774312 9.52205481,3.34135113 C5.89335623,4.8625452 2.52697322,6.37934275 1.77063003,10.1823279 L0,31.2504261 L0,60.2850088 L4.69107659,60.2850088 L4.69107659,64.8354015 C4.69107659,70.3881995 12.4512452,70.3881995 12.4512452,64.8354015 L12.4512452,60.2806123 L43.5487548,60.2806123 L43.5487548,64.8354015 C43.5487548,70.3881995 51.3132953,70.3881995 51.3132953,64.8354015 L51.3132953,60.2806123 L56,60.2806123 L56,31.2504261 L54.2206261,10.1779314 Z M16.4777891,5.31098969 L39.5134671,5.31098969 C41.7824967,5.31098969 41.7824967,8.74027112 39.5134671,8.74027112 L16.4777891,8.74027112 C14.2043875,8.74027112 14.2043875,5.31098969 16.4777891,5.31098969 Z M4.93153252,30.5557768 L7.05191662,15.2690954 C7.33609181,13.4093697 7.96564915,12.1915351 10.3614646,12.1915351 L45.6297916,12.1915351 C48.0212351,12.1915351 48.6507924,13.4093697 48.9393395,15.2690954 L51.0597236,30.5557768 C51.2520884,32.0198162 50.8323835,33.4750625 48.8212975,33.4750625 L7.1655867,33.4750625 C5.15450074,33.470666 4.73042392,32.0198162 4.93153252,30.5557768 Z M13.4830198,48.6430381 C13.4830198,49.5179445 12.7791397,50.2301798 11.9091264,50.2301798 L5.53923023,50.2301798 C4.66921696,50.2301798 3.96533687,49.5179445 3.96533687,48.6430381 L3.96533687,45.9303885 C3.96533687,45.0554821 4.66921696,44.3432467 5.53923023,44.3432467 L11.9091264,44.3432467 C12.7791397,44.3432467 13.4830198,45.0554821 13.4830198,45.9303885 L13.4830198,48.6430381 Z M52.0302912,48.6430381 C52.0302912,49.5179445 51.3220392,50.2301798 50.4563978,50.2301798 L44.0821298,50.2301798 C43.2121165,50.2301798 42.5082364,49.5179445 42.5082364,48.6430381 L42.5082364,45.9303885 C42.5082364,45.0554821 43.2121165,44.3432467 44.0821298,44.3432467 L50.4563978,44.3432467 C51.3264111,44.3432467 52.0302912,45.0554821 52.0302912,45.9303885 L52.0302912,48.6430381 Z" id="Shape"></path>
                </g>
            </g>
        </g>
    </g>
</svg>