<?xml version="1.0" encoding="UTF-8"?>
<svg width="80px" height="80px" viewBox="0 0 80 80" version="1.1" xmlns="http://www.w3.org/2000/svg" xmlns:xlink="http://www.w3.org/1999/xlink">
    <!-- Generator: Sketch 49.3 (51167) - http://www.bohemiancoding.com/sketch -->
    <title>pcjz@3x</title>
    <desc>Created with Sketch.</desc>
    <defs></defs>
    <g id="Page-1" stroke="none" stroke-width="1" fill="none" fill-rule="evenodd">
        <g id="首页" transform="translate(-747.000000, -4890.000000)" fill="#16A5EC" fill-rule="nonzero">
            <g id="Group-2" transform="translate(392.000000, 4637.000000)">
                <g id="pcjz" transform="translate(358.000000, 258.000000)">
                    <path d="M71.3409091,62.4285714 L68.0227273,62.4285714 L68.0227273,23 C68.0227273,19.3857143 65.0363636,16.4285714 61.3863636,16.4285714 L48.1136364,16.4285714 L48.1136364,62.4285714 L44.7954545,62.4285714 L44.7954545,6.57142856 C44.7954545,2.95714285 41.8090909,0 38.1590909,0 L11.6136364,0 C7.96363637,-2.50791451e-16 4.97727274,2.95714285 4.97727274,6.57142856 L4.97727274,62.4285714 L1.65909089,62.4285714 C0.66363637,62.4285714 0,63.0857143 0,64.0714286 L0,67.3571428 C0,68.3428571 0.66363637,68.9999999 1.65909089,69 L71.3409091,69 C72.3363636,69 73,68.3428571 73,67.3571428 L73,64.0714286 C73,63.0857143 72.3363636,62.4285714 71.3409091,62.4285714 Z M21.5681819,47.6428571 C21.5681819,48.6285714 20.9045455,49.2857142 19.9090909,49.2857142 L13.2727273,49.2857142 C12.2772727,49.2857142 11.6136364,48.6285714 11.6136364,47.6428571 L11.6136364,44.3571429 C11.6136364,43.3714286 12.2772727,42.7142858 13.2727273,42.7142857 L19.9090909,42.7142857 C20.9045454,42.7142857 21.5681818,43.3714285 21.5681819,44.3571429 L21.5681819,47.6428571 Z M21.5681819,34.5 C21.5681819,35.4857143 20.9045455,36.1428571 19.9090909,36.1428571 L13.2727273,36.1428571 C12.2772727,36.1428571 11.6136364,35.4857143 11.6136364,34.5 L11.6136364,31.2142857 C11.6136364,30.2285714 12.2772727,29.5714286 13.2727273,29.5714286 L19.9090909,29.5714286 C20.9045454,29.5714286 21.5681818,30.2285714 21.5681819,31.2142857 L21.5681819,34.5 Z M21.5681819,21.3571429 C21.5681819,22.3428571 20.9045455,23 19.9090909,23 L13.2727273,23 C12.2772727,23 11.6136364,22.3428571 11.6136364,21.3571429 L11.6136364,18.0714286 C11.6136364,17.0857143 12.2772727,16.4285714 13.2727273,16.4285714 L19.9090909,16.4285714 C20.9045454,16.4285714 21.5681818,17.0857143 21.5681819,18.0714286 L21.5681819,21.3571429 Z M38.1590909,47.6428571 C38.1590909,48.6285714 37.4954545,49.2857142 36.5,49.2857142 L29.8636364,49.2857142 C28.8681819,49.2857142 28.2045455,48.6285714 28.2045455,47.6428571 L28.2045455,44.3571429 C28.2045455,43.3714286 28.8681819,42.7142858 29.8636364,42.7142857 L36.5,42.7142857 C37.4954545,42.7142857 38.1590909,43.3714285 38.1590909,44.3571429 L38.1590909,47.6428571 Z M38.1590909,34.5 C38.1590909,35.4857143 37.4954545,36.1428571 36.5,36.1428571 L29.8636364,36.1428571 C28.8681819,36.1428571 28.2045455,35.4857143 28.2045455,34.5 L28.2045455,31.2142857 C28.2045455,30.2285714 28.8681819,29.5714286 29.8636364,29.5714286 L36.5,29.5714286 C37.4954545,29.5714286 38.1590909,30.2285714 38.1590909,31.2142857 L38.1590909,34.5 Z M38.1590909,21.3571429 C38.1590909,22.3428571 37.4954545,23 36.5,23 L29.8636364,23 C28.8681819,23 28.2045455,22.3428571 28.2045455,21.3571429 L28.2045455,18.0714286 C28.2045455,17.0857143 28.8681819,16.4285714 29.8636364,16.4285714 L36.5,16.4285714 C37.4954545,16.4285714 38.1590909,17.0857143 38.1590909,18.0714286 L38.1590909,21.3571429 Z M63.0454545,47.6428571 C63.0454545,48.6285714 62.3818181,49.2857142 61.3863636,49.2857142 L54.75,49.2857142 C53.7545455,49.2857142 53.0909091,48.6285714 53.0909091,47.6428571 L53.0909091,44.3571429 C53.0909091,43.3714286 53.7545455,42.7142858 54.75,42.7142857 L61.3863636,42.7142857 C62.3818181,42.7142857 63.0454545,43.3714285 63.0454545,44.3571429 L63.0454545,47.6428571 Z M63.0454545,34.5 C63.0454545,35.4857143 62.3818181,36.1428571 61.3863636,36.1428571 L54.75,36.1428571 C53.7545455,36.1428571 53.0909091,35.4857143 53.0909091,34.5 L53.0909091,31.2142857 C53.0909091,30.2285714 53.7545455,29.5714286 54.75,29.5714286 L61.3863636,29.5714286 C62.3818181,29.5714286 63.0454545,30.2285714 63.0454545,31.2142857 L63.0454545,34.5 Z" id="Shape"></path>
                </g>
            </g>
        </g>
    </g>
</svg>