<?xml version="1.0" encoding="UTF-8"?>
<svg width="80px" height="80px" viewBox="0 0 80 80" version="1.1" xmlns="http://www.w3.org/2000/svg" xmlns:xlink="http://www.w3.org/1999/xlink">
    <!-- Generator: Sketch 49.3 (51167) - http://www.bohemiancoding.com/sketch -->
    <title>pcls@3x</title>
    <desc>Created with Sketch.</desc>
    <defs></defs>
    <g id="Page-1" stroke="none" stroke-width="1" fill="none" fill-rule="evenodd">
        <g id="首页" transform="translate(-1442.000000, -5137.000000)" fill="#16A5EC" fill-rule="nonzero">
            <g id="Group-2" transform="translate(392.000000, 4637.000000)">
                <g id="pcls" transform="translate(1052.000000, 506.000000)">
                    <path d="M34.4239149,5.42307203 C34.6893192,4.89273585 34.8793617,4.28663738 34.8793617,3.64101079 C34.8793617,1.63166257 33.2492553,0.00112586862 31.278383,0.00112586862 C29.8743617,0.00112586862 28.6620213,0.836158277 28.055851,2.01047408 L18.2752128,20.6298852 L26.4634256,20.6298852 L34.4255532,5.42307203 L34.4239149,5.42307203 Z M42.5384042,5.42307203 L50.5365745,20.6298852 L58.7264255,20.6298852 L48.9457873,2.01047408 C48.201066,0.501637329 46.519245,-0.291070191 44.8891944,0.0984444333 C43.2591439,0.487959058 42.1120087,1.95667006 42.1222766,3.64101079 C42.0829574,4.28663744 42.273,4.85485477 42.5384042,5.42307203 Z M54.3636383,54.352348 L46.2491489,54.352348 L47.1174468,49.3915637 L55.2335745,49.3915637 L54.3652766,54.352348 L54.3636383,54.352348 Z M58.9672553,56.565925 L62.2880852,37.6253476 C62.3789357,37.1124961 62.30431,36.583877 62.0751064,36.1166895 C61.7043782,35.1931801 60.8130595,34.5884233 59.8224469,34.5882672 L18.8174894,34.5882672 C17.8066596,34.5882672 16.94,35.2108358 16.5730213,36.0969254 C16.3436596,36.5531462 16.2551915,37.0851294 16.3502128,37.6269946 L19.6710426,56.567572 C19.6013482,57.2618025 19.8281125,57.9531374 20.2948996,58.4695212 C20.7616867,58.985905 21.4246008,59.2787777 22.1186596,59.2752511 L56.5212766,59.2752511 C57.2156512,59.2788267 57.8788567,58.9857317 58.3457008,58.4689708 C58.8125448,57.9522099 59.0390848,57.2604242 58.9688936,56.565925 L58.9672553,56.565925 Z M56.9685319,39.5095233 L56.0953192,44.4703076 L47.9808298,44.4703076 L48.8491276,39.5095233 L56.9652554,39.5095233 L56.9685319,39.5095233 Z M41.2556171,54.352348 L35.7411064,54.352348 L34.8711702,49.3915637 L42.1255532,49.3915637 L41.2588936,54.352348 L41.2556171,54.352348 Z M42.9889362,44.4703076 L34.0110639,44.4703076 L33.1411277,39.5095233 L43.862149,39.5095233 L42.9922128,44.4703076 L42.9889362,44.4703076 Z M22.5429788,44.4703076 L21.6730426,39.5095233 L28.149234,39.5095233 L29.0175319,44.4703076 L22.5429788,44.4703076 Z M23.4063617,49.3915637 L29.8825532,49.3915637 L30.7508511,54.352348 L24.2746596,54.352348 L23.4047234,49.3915637 L23.4063617,49.3915637 Z M77,28.3098776 C77,28.3461117 77,28.3461117 77,28.3098776 L77,28.3461117 C77,30.3554599 75.4075745,31.9859965 73.3990213,31.9859966 L70.2141702,31.9859966 L62.479766,63.2330082 C62.0980681,64.8588556 60.6518656,66.0055859 58.9901915,65.9999795 L18.0098085,65.9999795 C16.348746,66.0048187 14.9034315,64.8582542 14.5218724,63.2330082 L6.78746808,31.9859966 L3.59934042,31.9859966 C1.60878816,31.972427 0.00175403925,30.3472905 0,28.3461117 C0,26.3367635 1.59242555,24.7062268 3.60097873,24.7062268 L73.7021064,24.7062268 C75.3512842,24.8485129 76.6940073,26.0979819 76.9623192,27.7400132 C77,27.7778944 77,27.8536567 77,27.8915379 L77,28.3082305 L77,28.3098776 Z" id="Shape"></path>
                </g>
            </g>
        </g>
    </g>
</svg>