<?xml version="1.0" encoding="UTF-8"?>
<svg width="80px" height="80px" viewBox="0 0 80 80" version="1.1" xmlns="http://www.w3.org/2000/svg" xmlns:xlink="http://www.w3.org/1999/xlink">
    <!-- Generator: Sketch 49.3 (51167) - http://www.bohemiancoding.com/sketch -->
    <title>pcnj@3x</title>
    <desc>Created with Sketch.</desc>
    <defs></defs>
    <g id="Page-1" stroke="none" stroke-width="1" fill="none" fill-rule="evenodd">
        <g id="首页" transform="translate(-1091.000000, -5144.000000)" fill="#16A5EC" fill-rule="nonzero">
            <g id="Group-2" transform="translate(392.000000, 4637.000000)">
                <g id="pcnj" transform="translate(702.000000, 511.000000)">
                    <path d="M55.7200944,29.6936021 C57.07763,29.4870384 58.4660725,29.3739585 59.8771237,29.3567378 L59.8771237,25.7739808 C59.8761922,25.5785299 59.8676399,25.3851998 59.8552771,25.1928029 C59.5555219,20.5957204 55.7282234,16.9464558 51.065082,16.9464558 L42.9495055,16.9464558 L42.9495055,8.8274402 C42.9495055,3.9596616 38.9965468,0 34.1384799,0 L25.8311954,0 C20.9722817,0 17.0195771,3.9599161 17.0195771,8.8274402 L17.0195771,16.9464558 L8.81111028,16.9464558 C3.95253524,16.9464558 0,20.9068809 0,25.7739809 L0,34.0960822 C0,38.9637759 3.9527046,42.9238617 8.81136432,42.9238617 L17.0194077,42.9238617 L17.0194077,50.894338 C17.0194077,55.761947 20.9725357,59.7213541 25.8311108,59.7213541 L30.6498878,59.7213541 C30.636763,59.3665904 30.6279566,59.0102997 30.6279566,58.6518035 C30.6279566,57.6068539 30.6845206,56.5747138 30.7931607,55.5575888 C32.2026877,42.3318254 42.542719,31.7007909 55.7200944,29.6936021 Z M73.8415684,35.9925663 L73.6822916,34.6140608 L72.3509211,34.2306242 C67.8549314,32.9364408 63.6390519,32.2798481 59.8195436,32.2798481 C47.7394078,32.2798481 41.4163506,38.7504256 38.2393685,44.1787682 C34.8625496,49.9482166 34.307325,55.6716017 34.2858172,55.9122676 L33.9710742,59.3623487 L41.0519872,56.3859645 L33.4078054,62.5837252 L33.211525,63.132328 C32.428351,65.3174925 32.4821207,67.0665403 33.3698703,68.3312873 C33.9043491,69.0921375 34.9727141,70 37.0267995,70 C38.4177823,70 39.7048669,69.573045 39.847547,69.523843 L40.1539917,69.419331 L44.3324441,66.3135794 C46.2247126,66.562898 48.049409,66.6887874 49.7694452,66.6887874 L49.7711387,66.6887874 C57.3266641,66.688448 63.2776521,64.304694 67.4581369,59.6048809 C75.4281542,50.6426441 73.9096484,36.5866386 73.8415684,35.9925663 Z" id="Shape"></path>
                </g>
            </g>
        </g>
    </g>
</svg>