<?xml version="1.0" encoding="UTF-8"?>
<svg width="44px" height="41px" viewBox="0 0 44 41" version="1.1" xmlns="http://www.w3.org/2000/svg" xmlns:xlink="http://www.w3.org/1999/xlink">
    <!-- Generator: Sketch 49.3 (51167) - http://www.bohemiancoding.com/sketch -->
    <title>pcqizi@3x</title>
    <desc>Created with Sketch.</desc>
    <defs></defs>
    <g id="Page-1" stroke="none" stroke-width="1" fill="none" fill-rule="evenodd">
        <g id="招商政策" transform="translate(-690.000000, -4037.000000)">
            <g id="pcqizi" transform="translate(691.000000, 4037.000000)">
                <ellipse id="Oval" stroke="#16A2ED" cx="16.5" cy="34" rx="16.5" ry="6"></ellipse>
                <g id="红旗-copy-12" transform="translate(10.000000, 0.000000)" fill="#16A2ED" fill-rule="nonzero">
                    <path d="M3.90147783,31.535356 C2.49261084,31.7693898 1.55336617,32.3094677 1.55336617,32.8675482 C1.55336617,33.5696494 3.05254516,34.1997403 5.09359606,34.3617637 C5.25615764,34.4337741 5.32840722,34.4337741 5.4909688,34.4337741 L7.06239737,34.4337741 C7.22495895,34.4337741 7.29720854,34.4337741 7.45977011,34.3617637 C9.50082102,34.1997403 11,33.587652 11,32.8675482 C11,32.3274703 10.0607553,31.7693898 8.65188834,31.535356 L8.65188834,29.9691301 C10.9277504,30.4371976 12.5714286,31.535356 12.5714286,32.8675482 C12.5714286,34.5957975 9.73563218,36 6.28571429,36 C2.83579639,36 0,34.5957975 0,32.8675482 C0,31.535356 1.64367816,30.4371976 3.91954023,29.9691301 L3.91954023,31.535356 L3.90147783,31.535356 Z M6.26765189,1.56103235 C5.79802956,1.56103235 5.4909688,1.95708948 5.4909688,2.33514402 C5.4909688,2.71319855 5.79802956,3.10925568 6.26765189,3.10925568 C6.73727422,3.10925568 7.04433498,2.80321153 7.04433498,2.33514402 C7.04433498,1.8670765 6.73727422,1.56103235 6.26765189,1.56103235 Z M16.635468,21.2018654 C11.4515599,20.8058083 8.54351396,21.7419433 7.06239737,22.606068 L7.06239737,32.0754339 C7.06239737,32.5435014 6.75533662,32.8495456 6.28571429,32.8495456 C5.81609195,32.8495456 5.5090312,32.5435014 5.5090312,32.0754339 L5.5090312,4.53146082 C4.24466338,4.13540369 3.63054187,2.80321153 4.1001642,1.56103235 C4.49753695,0.300850579 5.83415435,-0.311237712 7.08045977,0.156829804 C8.32676519,0.624897321 8.9589491,1.95708948 8.48932677,3.12725827 C8.2545156,3.82935955 7.71264368,4.29742706 7.08045977,4.53146082 L7.08045977,7.96995681 C9.28407225,7.66391266 13.5287356,7.89794642 17.2134647,12.2725774 C22.4696223,18.5374811 33,16.1071306 33,16.1071306 C33,16.1071306 25.9014778,21.9039667 16.635468,21.2018654 Z" id="Shape"></path>
                </g>
            </g>
        </g>
    </g>
</svg>