<?xml version="1.0" encoding="UTF-8"?>
<svg width="80px" height="80px" viewBox="0 0 80 80" version="1.1" xmlns="http://www.w3.org/2000/svg" xmlns:xlink="http://www.w3.org/1999/xlink">
    <!-- Generator: Sketch 49.3 (51167) - http://www.bohemiancoding.com/sketch -->
    <title>pcwj@3x</title>
    <desc>Created with Sketch.</desc>
    <defs></defs>
    <g id="Page-1" stroke="none" stroke-width="1" fill="none" fill-rule="evenodd">
        <g id="首页" transform="translate(-1444.000000, -4637.000000)" fill="#16A5EC" fill-rule="nonzero">
            <g id="Group-2" transform="translate(392.000000, 4637.000000)">
                <g id="pcwj" transform="translate(1055.000000, 13.000000)">
                    <path d="M73.2857143,21.7987805 L64.125,21.7987805 L64.125,12.2743902 C64.125,10.7903963 62.9120536,9.59146341 61.4107143,9.59146341 L34.6919643,9.59146341 L24.7424107,0.18445122 C24.6151786,0.0670731707 24.4455357,0 24.2758929,0 L2.71428571,0 C1.21294643,0 0,1.19893293 0,2.68292683 L0,52.3170732 C0,53.8010671 1.21294643,55 2.71428571,55 L61.9196429,55 C63.0223214,55 64.0232143,54.3376524 64.4388393,53.3231707 L75.8049107,25.4878049 C75.9321429,25.1692073 76,24.8254573 76,24.4817073 C76,22.9977134 74.7870536,21.7987805 73.2857143,21.7987805 Z M58.0178571,21.7987805 L14.7589286,21.7987805 C13.65625,21.7987805 12.6553571,22.461128 12.2397321,23.4756098 L6.10714286,38.5 L6.10714286,6.03658537 L22.0959821,6.03658537 L32.240625,15.6280488 L58.0178571,15.6280488 L58.0178571,21.7987805 Z" id="Shape"></path>
                </g>
            </g>
        </g>
    </g>
</svg>